<svg width="48" height="48" viewBox="0 0 48 48" fill="none" xmlns="http://www.w3.org/2000/svg">
<rect width="48" height="48" rx="10" fill="#563F2E"/>
<path d="M23.5 11C16.3081 11 10 16.3647 10 22.4805C10 27.4671 13.5082 31.5156 19 32.9531V36.4211C19.0007 36.6384 19.0958 36.8466 19.2644 37.0002C19.433 37.1538 19.6615 37.2405 19.9 37.2411C20.0377 37.2411 20.1754 37.2124 20.3023 37.155L29.3626 33.0245C34.6447 30.1363 37 26.8849 37 22.4805C37 16.3647 30.6919 11 23.5 11ZM28.4977 31.587L20.8 35.0942V32.3209C20.8 32.1362 20.7315 31.957 20.6057 31.8122C20.48 31.6674 20.3042 31.5655 20.107 31.523C15.0607 30.4348 11.8 26.8857 11.8 22.4805C11.8 17.238 17.2675 12.6401 23.5 12.6401C29.7325 12.6401 35.2 17.238 35.2 22.4805C35.2 26.2936 33.1768 29.026 28.4977 31.587Z" fill="white"/>
<path d="M24.9762 22.3074L23.3979 19.7474C23.3112 19.6069 23.185 19.5002 23.0379 19.4432C22.8909 19.3861 22.7307 19.3818 22.5812 19.4308C22.4316 19.4798 22.3006 19.5795 22.2075 19.7152C22.1144 19.8509 22.0642 20.0154 22.0642 20.1843V25.6947H23.5202V22.7844L25.0985 25.3444C25.1852 25.4849 25.3114 25.5916 25.4585 25.6486C25.6056 25.7057 25.7658 25.71 25.9153 25.661C26.0648 25.612 26.1958 25.5123 26.2889 25.3766C26.382 25.2409 26.4323 25.0764 26.4322 24.9075V19.3971H24.9762V22.3074ZM30.8002 20.9715V19.3971H27.8882C27.6952 19.3971 27.51 19.4801 27.3735 19.6277C27.2369 19.7753 27.1602 19.9756 27.1602 20.1843V24.9075C27.1602 25.1162 27.2369 25.3165 27.3735 25.4641C27.51 25.6117 27.6952 25.6947 27.8882 25.6947H30.8002V24.1203H28.6162V23.3331H30.8002V21.7587H28.6162V20.9715H30.8002ZM17.6962 19.3971H16.2402V24.9075C16.2402 25.1162 16.3169 25.3165 16.4535 25.4641C16.59 25.6117 16.7752 25.6947 16.9682 25.6947H19.1522V24.1203H17.6962V19.3971ZM19.8802 19.3971H21.3362V25.6947H19.8802V19.3971Z" fill="white"/>
</svg>
