<svg width="100" height="159" viewBox="0 0 100 159" fill="none" xmlns="http://www.w3.org/2000/svg">
<path d="M64.1875 14.0625C63.1458 15.1667 62.1771 16.3229 61.2812 17.5312C63.2396 18.6146 64.9792 19.9167 66.5 21.4375C68.0417 22.9375 69.3333 24.5938 70.375 26.4062C71.4375 28.2188 72.2396 30.1667 72.7812 32.25C73.3438 34.3125 73.625 36.4479 73.625 38.6562C73.625 40.6146 73.4271 42.5625 73.0312 44.5C72.6562 46.4375 72.0521 48.2917 71.2188 50.0625C70.4062 51.8125 69.3646 53.4479 68.0938 54.9688C66.8229 56.4688 65.3021 57.7812 63.5312 58.9062C61.7604 60.0104 59.7396 60.875 57.4688 61.5C55.1979 62.1458 52.6458 62.4688 49.8125 62.4688C47.2917 62.4688 44.8958 62.2292 42.625 61.75C40.3542 61.2917 38.1771 60.7812 36.0938 60.2188C34.4896 61.3021 32.7292 62.1458 30.8125 62.75C28.9167 63.3542 26.7708 63.6562 24.375 63.6562C23.3958 63.6562 22.5521 63.5625 21.8438 63.375C21.1354 63.2083 20.5521 62.9688 20.0938 62.6562C19.6562 62.3438 19.3229 61.9792 19.0938 61.5625C18.8854 61.1667 18.7812 60.75 18.7812 60.3125C18.7812 59.7917 18.9062 59.3021 19.1562 58.8438C19.4271 58.3646 19.8229 57.9479 20.3438 57.5938C20.8854 57.2396 21.5625 56.9583 22.375 56.75C23.2083 56.5417 24.1771 56.4375 25.2812 56.4375C26.8021 56.4375 28.3125 56.6042 29.8125 56.9375C31.3333 57.25 32.875 57.6146 34.4375 58.0312C35.9583 56.6562 37.3438 55.0104 38.5938 53.0938C39.8646 51.1562 41.0729 49.0521 42.2188 46.7812C43.3854 44.4896 44.5208 42.0938 45.625 39.5938C46.75 37.0938 47.9375 34.5833 49.1875 32.0625C50.4583 29.5417 51.8229 27.0729 53.2812 24.6562C54.7604 22.2396 56.4167 19.9688 58.25 17.8438C56.6875 17.1771 54.9896 16.6667 53.1562 16.3125C51.3438 15.9375 49.3958 15.75 47.3125 15.75C44.7708 15.75 42.3229 16.0104 39.9688 16.5312C37.6146 17.0521 35.4167 17.7708 33.375 18.6875C31.3333 19.6042 29.4688 20.6771 27.7812 21.9062C26.0938 23.1354 24.6458 24.4688 23.4375 25.9062C22.25 27.3229 21.3229 28.8125 20.6562 30.375C20.0104 31.9167 19.6875 33.4583 19.6875 35C19.6875 36 19.8854 36.9479 20.2812 37.8438C20.6771 38.7396 21.2188 39.5312 21.9062 40.2188C22.5938 40.8854 23.4062 41.4167 24.3438 41.8125C25.2812 42.2083 26.3021 42.4062 27.4062 42.4062C28.2604 42.4062 29.1042 42.3125 29.9375 42.125C30.7917 41.9167 31.6042 41.6667 32.375 41.375C33.1458 41.0833 33.8646 40.7708 34.5312 40.4375C35.1979 40.0833 35.7812 39.7604 36.2812 39.4688C36.7812 39.1562 37.1667 38.9062 37.4375 38.7188C37.7292 38.5104 37.8854 38.3958 37.9062 38.375L38.9062 39.6875C37.9271 40.3333 36.9062 40.9583 35.8438 41.5625C34.8021 42.1458 33.7188 42.6771 32.5938 43.1562C31.4688 43.6146 30.3021 43.9896 29.0938 44.2812C27.8854 44.5521 26.6562 44.6875 25.4062 44.6875C24.1562 44.6875 22.9688 44.4792 21.8438 44.0625C20.7188 43.625 19.7292 43.0208 18.875 42.25C18.0417 41.4583 17.375 40.5208 16.875 39.4375C16.375 38.3542 16.125 37.1562 16.125 35.8438C16.125 34.3438 16.4583 32.7708 17.125 31.125C17.8125 29.4792 18.7812 27.8542 20.0312 26.25C21.3021 24.625 22.8542 23.0833 24.6875 21.625C26.5208 20.1667 28.5833 18.8854 30.875 17.7812C33.1875 16.6562 35.7188 15.7708 38.4688 15.125C41.2396 14.4583 44.1875 14.125 47.3125 14.125C49.5833 14.125 51.7188 14.3438 53.7188 14.7812C55.7396 15.1979 57.625 15.8021 59.375 16.5938C60.5625 15.3229 61.8438 14.1354 63.2188 13.0312L64.1875 14.0625ZM70.2188 36.5312C70.2188 34.5938 70 32.75 69.5625 31C69.125 29.25 68.4792 27.625 67.625 26.125C66.7917 24.625 65.7604 23.2604 64.5312 22.0312C63.3021 20.8021 61.8958 19.75 60.3125 18.875C58.7917 21.0625 57.4062 23.375 56.1562 25.8125C54.9062 28.25 53.7292 30.7188 52.625 33.2188C51.5208 35.7188 50.4375 38.1979 49.375 40.6562C48.3125 43.1146 47.1979 45.4688 46.0312 47.7188C44.8854 49.9479 43.6354 52.0312 42.2812 53.9688C40.9271 55.8854 39.4062 57.5521 37.7188 58.9688C39.3854 59.4271 41.0521 59.8229 42.7188 60.1562C44.3854 60.5104 46.1042 60.6875 47.875 60.6875C51.5417 60.6875 54.7708 60.0625 57.5625 58.8125C60.3542 57.5417 62.6875 55.8229 64.5625 53.6562C66.4375 51.4688 67.8438 48.9062 68.7812 45.9688C69.7396 43.0312 70.2188 39.8854 70.2188 36.5312ZM24.25 62.0312C25.9375 62.0312 27.4792 61.7917 28.875 61.3125C30.2917 60.8542 31.6042 60.1875 32.8125 59.3125C31.4375 58.9583 30.125 58.6667 28.875 58.4375C27.625 58.1875 26.4271 58.0625 25.2812 58.0625C23.6562 58.0625 22.4375 58.2812 21.625 58.7188C20.8333 59.1354 20.4375 59.6458 20.4375 60.25C20.4375 60.7292 20.7188 61.1458 21.2812 61.5C21.8646 61.8542 22.8542 62.0312 24.25 62.0312Z" fill="white"/>
<path d="M44.6562 106.875C43.6979 108.542 42.5938 110.208 41.3438 111.875C40.1146 113.542 38.7292 115.052 37.1875 116.406C35.6667 117.74 33.9792 118.833 32.125 119.688C30.2708 120.521 28.25 120.938 26.0625 120.938C24.2708 120.938 22.5938 120.667 21.0312 120.125C19.4688 119.562 18.1042 118.74 16.9375 117.656C15.7917 116.573 14.8854 115.25 14.2188 113.688C13.5729 112.104 13.25 110.281 13.25 108.219C13.25 105.698 13.6354 103.385 14.4062 101.281C15.1979 99.1562 16.2604 97.25 17.5938 95.5625C18.9271 93.8542 20.4792 92.3646 22.25 91.0938C24.0208 89.8021 25.9062 88.7292 27.9062 87.875C29.9062 87 31.9583 86.3542 34.0625 85.9375C36.1875 85.5 38.25 85.2917 40.25 85.3125C42.4167 85.3333 44.5312 85.6458 46.5938 86.25C48.6771 86.8542 50.5208 87.7812 52.125 89.0312C53.75 90.2604 55.0521 91.8229 56.0312 93.7188C57.0104 95.6146 57.5 97.8542 57.5 100.438C57.5 102.229 57.1875 104.24 56.5625 106.469C55.9375 108.677 54.8542 111.125 53.3125 113.812C51.5208 116.938 49.9688 119.604 48.6562 121.812C47.3438 124 46.25 125.844 45.375 127.344C44.5208 128.823 43.8854 130.01 43.4688 130.906C43.0521 131.781 42.8438 132.479 42.8438 133C42.8438 133.5 43.0625 133.896 43.5 134.188C43.9583 134.479 44.5938 134.625 45.4062 134.625C46.5104 134.625 47.8125 134.333 49.3125 133.75C50.8125 133.167 52.4688 132.292 54.2812 131.125C55.9271 130.083 57.5521 128.885 59.1562 127.531C60.7604 126.177 62.3229 124.74 63.8438 123.219C65.3854 121.677 66.8646 120.083 68.2812 118.438C69.7188 116.792 71.0729 115.156 72.3438 113.531C73.6146 111.885 74.7917 110.281 75.875 108.719C76.9583 107.156 77.9271 105.688 78.7812 104.312C78.3646 103.021 78.0625 101.792 77.875 100.625C77.6875 99.4375 77.5938 98.3229 77.5938 97.2812C77.5938 96.0104 77.7083 94.8854 77.9375 93.9062C78.1667 92.9062 78.4688 92.0729 78.8438 91.4062C79.2396 90.7188 79.6979 90.1979 80.2188 89.8438C80.7604 89.4896 81.3333 89.3125 81.9375 89.3125C82.4583 89.3125 82.9062 89.4375 83.2812 89.6875C83.6771 89.9167 84 90.2188 84.25 90.5938C84.5 90.9688 84.6875 91.3958 84.8125 91.875C84.9375 92.3542 85 92.8333 85 93.3125C85 94.0417 84.875 94.9271 84.625 95.9688C84.375 97.0104 83.9167 98.2396 83.25 99.6562C82.6875 100.865 81.8958 102.323 80.875 104.031C79.8542 105.74 78.6458 107.594 77.25 109.594C75.875 111.573 74.3438 113.625 72.6562 115.75C70.9896 117.875 69.2083 119.958 67.3125 122C65.4167 124.021 63.4375 125.938 61.375 127.75C59.3333 129.562 57.2604 131.146 55.1562 132.5C52.9271 133.938 51.0208 134.927 49.4375 135.469C47.8542 136.01 46.5208 136.281 45.4375 136.281C44.4583 136.281 43.6354 136.135 42.9688 135.844C42.3229 135.552 41.8021 135.156 41.4062 134.656C41.0104 134.177 40.7292 133.635 40.5625 133.031C40.3958 132.427 40.3125 131.812 40.3125 131.188C40.3125 130.438 40.4271 129.646 40.6562 128.812C40.8854 127.979 41.2396 127.167 41.7188 126.375C42.2812 125.438 42.9896 124.292 43.8438 122.938C44.6979 121.583 45.6042 120.104 46.5625 118.5C47.5417 116.896 48.5208 115.208 49.5 113.438C50.4792 111.646 51.3542 109.865 52.125 108.094C52.9167 106.302 53.5521 104.552 54.0312 102.844C54.5312 101.135 54.7812 99.5521 54.7812 98.0938C54.7812 96.6771 54.4583 95.3021 53.8125 93.9688C53.1875 92.6354 52.25 91.4479 51 90.4062C49.7708 89.3646 48.25 88.5312 46.4375 87.9062C44.625 87.2604 42.5312 86.9375 40.1562 86.9375C38.0312 86.9375 35.9792 87.1979 34 87.7188C32.0417 88.2188 30.1979 88.9271 28.4688 89.8438C26.7396 90.7604 25.1562 91.8646 23.7188 93.1562C22.3021 94.4271 21.0833 95.8333 20.0625 97.375C19.0417 98.8958 18.25 100.531 17.6875 102.281C17.125 104.01 16.8438 105.792 16.8438 107.625C16.8438 109.375 17.1146 110.927 17.6562 112.281C18.2188 113.615 18.9688 114.729 19.9062 115.625C20.8438 116.521 21.9271 117.198 23.1562 117.656C24.3854 118.115 25.6771 118.344 27.0312 118.344C28.4896 118.344 29.9583 118.062 31.4375 117.5C32.9167 116.938 34.3542 116.125 35.75 115.062C37.1667 114 38.5208 112.719 39.8125 111.219C41.1042 109.698 42.3021 108 43.4062 106.125L44.6562 106.875ZM79.9062 102.406C80.6146 101.219 81.1875 100.156 81.625 99.2188C82.0833 98.2812 82.4375 97.4479 82.6875 96.7188C82.9375 95.9896 83.1042 95.3542 83.1875 94.8125C83.2917 94.25 83.3438 93.7604 83.3438 93.3438C83.3438 93.0938 83.3229 92.8333 83.2812 92.5625C83.2396 92.2708 83.1562 92.0104 83.0312 91.7812C82.9271 91.5312 82.7708 91.3333 82.5625 91.1875C82.375 91.0417 82.1146 90.9688 81.7812 90.9688C81.4062 90.9688 81.0625 91.1458 80.75 91.5C80.4375 91.8333 80.1667 92.2917 79.9375 92.875C79.7083 93.4375 79.5312 94.1042 79.4062 94.875C79.2812 95.625 79.2188 96.4375 79.2188 97.3125C79.2188 98.0625 79.2708 98.8646 79.375 99.7188C79.4792 100.573 79.6562 101.469 79.9062 102.406Z" fill="white"/>
<path d="M56.6094 72.4375C56.5885 72.5625 56.5729 72.6875 56.5625 72.8125C56.5521 72.9375 56.5469 73.0625 56.5469 73.1875C56.5469 73.5625 56.599 73.9219 56.7031 74.2656C56.8177 74.599 56.9792 74.8958 57.1875 75.1562C57.4062 75.4062 57.6719 75.6042 57.9844 75.75C58.3073 75.8958 58.6719 75.9688 59.0781 75.9688C60.4427 75.9688 61.7604 75.5052 63.0312 74.5781C64.3021 73.651 65.5677 72.1823 66.8281 70.1719L67.3594 70.6406C66.6719 71.7865 65.974 72.7552 65.2656 73.5469C64.5573 74.3281 63.849 74.9635 63.1406 75.4531C62.4427 75.9427 61.7552 76.2969 61.0781 76.5156C60.401 76.7344 59.7552 76.8438 59.1406 76.8438C58.6927 76.8438 58.2188 76.7812 57.7188 76.6562C57.2188 76.5312 56.7552 76.3229 56.3281 76.0312C55.9115 75.7396 55.5677 75.349 55.2969 74.8594C55.0156 74.3698 54.875 73.7604 54.875 73.0312C54.875 72.25 55.0104 71.5 55.2812 70.7812C55.5417 70.0521 55.8854 69.375 56.3125 68.75C56.7396 68.125 57.2292 67.5573 57.7812 67.0469C58.3333 66.526 58.8906 66.0833 59.4531 65.7188C60.026 65.3542 60.5833 65.0729 61.125 64.875C61.6667 64.6667 62.1458 64.5625 62.5625 64.5625C62.8333 64.5625 63.1094 64.6042 63.3906 64.6875C63.6719 64.7708 63.9219 64.901 64.1406 65.0781C64.3698 65.2552 64.5521 65.4896 64.6875 65.7812C64.8333 66.0729 64.9062 66.4219 64.9062 66.8281C64.9062 67.3802 64.776 67.901 64.5156 68.3906C64.2656 68.8698 63.9271 69.3177 63.5 69.7344C63.0729 70.1406 62.5781 70.5104 62.0156 70.8438C61.4531 71.1667 60.8646 71.4427 60.25 71.6719C59.6354 71.901 59.0156 72.0833 58.3906 72.2188C57.7656 72.3542 57.1719 72.4271 56.6094 72.4375ZM56.7344 71.7656C57.4323 71.6927 58.0885 71.5469 58.7031 71.3281C59.3177 71.1094 59.8802 70.8438 60.3906 70.5312C60.901 70.2083 61.3542 69.8594 61.75 69.4844C62.1562 69.1094 62.4948 68.7292 62.7656 68.3438C63.0365 67.9583 63.2448 67.5885 63.3906 67.2344C63.5365 66.8802 63.6094 66.5625 63.6094 66.2812C63.6094 66 63.5312 65.776 63.375 65.6094C63.2292 65.4427 63.0521 65.3594 62.8438 65.3594C62.3854 65.3594 61.8698 65.526 61.2969 65.8594C60.724 66.1823 60.151 66.6354 59.5781 67.2188C59.0052 67.7917 58.4635 68.4688 57.9531 69.25C57.4531 70.0312 57.0469 70.8698 56.7344 71.7656ZM73.4844 65.6562C73.0781 66.3958 72.6562 67.2083 72.2188 68.0938C71.7812 68.9688 71.3385 69.8802 70.8906 70.8281C70.4531 71.776 70.0104 72.7396 69.5625 73.7188C69.125 74.6979 68.6927 75.6562 68.2656 76.5938C69.2448 76.0521 70.1042 75.5104 70.8438 74.9688C71.5938 74.4271 72.25 73.8906 72.8125 73.3594C73.375 72.8177 73.8646 72.2812 74.2812 71.75C74.6979 71.2188 75.0729 70.6927 75.4062 70.1719L75.9688 70.6094C75.5 71.3177 74.9948 71.9896 74.4531 72.625C73.9219 73.25 73.3229 73.8594 72.6562 74.4531C71.9896 75.0469 71.2396 75.6354 70.4062 76.2188C69.5833 76.8021 68.6562 77.401 67.625 78.0156C67.25 78.8385 66.8906 79.6094 66.5469 80.3281C66.2031 81.0573 65.8802 81.7135 65.5781 82.2969C65.0573 83.2865 64.4844 84.2135 63.8594 85.0781C63.2344 85.9427 62.599 86.6927 61.9531 87.3281C61.2969 87.974 60.651 88.4792 60.0156 88.8438C59.3802 89.2188 58.7917 89.4062 58.25 89.4062C58.0312 89.4062 57.8229 89.3698 57.625 89.2969C57.4167 89.224 57.2292 89.1146 57.0625 88.9688C56.8958 88.8229 56.7656 88.6302 56.6719 88.3906C56.5677 88.1615 56.5156 87.8802 56.5156 87.5469C56.5156 86.6719 56.7292 85.8073 57.1562 84.9531C57.5729 84.099 58.1823 83.2604 58.9844 82.4375C59.776 81.625 60.7552 80.8281 61.9219 80.0469C63.0781 79.276 64.3958 78.5365 65.875 77.8281C66.2188 77.1198 66.5365 76.4583 66.8281 75.8438C67.1198 75.2292 67.4167 74.625 67.7188 74.0312C68.0208 73.4375 68.3333 72.8438 68.6562 72.25C68.9896 71.6458 69.3594 71 69.7656 70.3125C70.1823 69.625 70.6458 68.8802 71.1562 68.0781C71.6771 67.276 72.276 66.3802 72.9531 65.3906L73.4844 65.6562ZM58.2969 88.5781C58.8385 88.5781 59.375 88.3594 59.9062 87.9219C60.4271 87.4844 60.9635 86.8646 61.5156 86.0625C62.0573 85.2604 62.625 84.2969 63.2188 83.1719C63.8021 82.0573 64.4271 80.8177 65.0938 79.4531L64.4219 79.8125C63.3385 80.3958 62.3646 81.0417 61.5 81.75C60.625 82.4688 59.8854 83.1875 59.2812 83.9062C58.6771 84.625 58.2135 85.3125 57.8906 85.9688C57.5677 86.625 57.4062 87.1771 57.4062 87.625C57.4062 87.8958 57.4792 88.1198 57.625 88.2969C57.7604 88.4844 57.9844 88.5781 58.2969 88.5781ZM75.6562 62.9531C75.4479 63.2552 75.2188 63.5052 74.9688 63.7031C74.7188 63.901 74.4844 64 74.2656 64C74.0885 64 73.9531 63.9375 73.8594 63.8125C73.7656 63.6771 73.7188 63.5208 73.7188 63.3438C73.7188 63.1771 73.7552 62.9792 73.8281 62.75C73.901 62.5208 74 62.3021 74.125 62.0938C74.2604 61.8854 74.4167 61.7083 74.5938 61.5625C74.7708 61.4167 74.9583 61.3438 75.1562 61.3438C75.3854 61.3438 75.5729 61.4271 75.7188 61.5938C75.875 61.7604 75.9531 61.9375 75.9531 62.125C75.9531 62.3854 75.8542 62.6615 75.6562 62.9531ZM87.8438 65.6094C87.7083 65.8802 87.5156 66.2344 87.2656 66.6719C87.026 67.1094 86.7656 67.5938 86.4844 68.125C86.2031 68.6458 85.9167 69.1927 85.625 69.7656C85.3438 70.3385 85.0833 70.901 84.8438 71.4531C84.6146 71.9948 84.4219 72.5104 84.2656 73C84.1198 73.4792 84.0469 73.8854 84.0469 74.2188C84.0469 74.5521 84.1094 74.7708 84.2344 74.875C84.3698 74.9688 84.5417 75.0156 84.75 75.0156C85.0521 75.0156 85.3594 74.9271 85.6719 74.75C85.9948 74.5729 86.3073 74.3438 86.6094 74.0625C86.9219 73.7812 87.224 73.4635 87.5156 73.1094C87.8073 72.7552 88.0781 72.401 88.3281 72.0469C88.5885 71.6823 88.8229 71.3385 89.0312 71.0156C89.2396 70.6823 89.4167 70.401 89.5625 70.1719L90.125 70.6094C89.9479 70.9427 89.7396 71.3021 89.5 71.6875C89.2604 72.0729 88.9948 72.4635 88.7031 72.8594C88.4219 73.2448 88.1146 73.6198 87.7812 73.9844C87.4479 74.349 87.0938 74.6719 86.7188 74.9531C86.3542 75.2344 85.9688 75.4583 85.5625 75.625C85.1562 75.7917 84.7396 75.875 84.3125 75.875C83.6875 75.875 83.2292 75.6875 82.9375 75.3125C82.6458 74.9375 82.5 74.4531 82.5 73.8594C82.5 73.8177 82.5 73.7292 82.5 73.5938C82.5104 73.4479 82.526 73.3333 82.5469 73.25C82.026 73.9062 81.526 74.4479 81.0469 74.875C80.5781 75.3021 80.1198 75.6406 79.6719 75.8906C79.2344 76.1406 78.8073 76.3125 78.3906 76.4062C77.9844 76.5104 77.5938 76.5625 77.2188 76.5625C76.8229 76.5625 76.4479 76.4948 76.0938 76.3594C75.75 76.2344 75.4479 76.0469 75.1875 75.7969C74.9167 75.5469 74.7083 75.2396 74.5625 74.875C74.4062 74.5104 74.3281 74.0885 74.3281 73.6094C74.3281 73.0156 74.4635 72.3385 74.7344 71.5781C74.9948 70.8073 75.4635 69.9792 76.1406 69.0938C76.7135 68.3333 77.3073 67.6927 77.9219 67.1719C78.5469 66.651 79.1562 66.2344 79.75 65.9219C80.3542 65.599 80.9271 65.3698 81.4688 65.2344C82.0104 65.099 82.4948 65.0312 82.9219 65.0312C83.8802 65.0312 84.6042 65.1927 85.0938 65.5156C85.5833 65.8281 85.8802 66.3125 85.9844 66.9688C86.1927 66.7083 86.4115 66.4479 86.6406 66.1875C86.8698 65.9271 87.1042 65.6615 87.3438 65.3906L87.8438 65.6094ZM83.0469 71.5469C83.1823 71.3281 83.349 71.0521 83.5469 70.7188C83.7448 70.375 83.9531 70.026 84.1719 69.6719C84.3906 69.3073 84.6042 68.9583 84.8125 68.625C85.0208 68.2917 85.2031 68.0104 85.3594 67.7812C85.3594 67.6875 85.3438 67.5365 85.3125 67.3281C85.2917 67.1198 85.224 66.9115 85.1094 66.7031C84.9948 66.4844 84.8125 66.2969 84.5625 66.1406C84.3125 65.9844 83.9635 65.9062 83.5156 65.9062C83.1927 65.9062 82.8281 65.9583 82.4219 66.0625C82.026 66.1562 81.599 66.3229 81.1406 66.5625C80.6927 66.7917 80.2292 67.099 79.75 67.4844C79.2708 67.8698 78.7917 68.349 78.3125 68.9219C77.5938 69.7865 77.0365 70.6562 76.6406 71.5312C76.2552 72.3958 76.0625 73.1771 76.0625 73.875C76.0625 74.4688 76.1979 74.9271 76.4688 75.25C76.7396 75.5729 77.125 75.7344 77.625 75.7344C78.1979 75.7344 78.7344 75.6094 79.2344 75.3594C79.7344 75.099 80.2031 74.7656 80.6406 74.3594C81.0781 73.9531 81.4948 73.5052 81.8906 73.0156C82.2865 72.5156 82.6719 72.026 83.0469 71.5469Z" fill="white"/>
<path d="M70.3438 134.594C69.8646 135.156 69.3906 135.677 68.9219 136.156C68.4531 136.625 67.9844 137.031 67.5156 137.375C67.0573 137.708 66.599 137.969 66.1406 138.156C65.6823 138.354 65.2188 138.453 64.75 138.453C64.3542 138.453 63.9948 138.38 63.6719 138.234C63.3594 138.099 63.0885 137.906 62.8594 137.656C62.6198 137.396 62.4375 137.083 62.3125 136.719C62.1875 136.344 62.125 135.927 62.125 135.469C62.125 134.75 62.2865 134.01 62.6094 133.25C62.9219 132.49 63.3177 131.75 63.7969 131.031C64.2865 130.312 64.8229 129.63 65.4062 128.984C66 128.339 66.5625 127.766 67.0938 127.266L67.7656 127.734C67.3906 128.286 66.9688 128.911 66.5 129.609C66.0417 130.307 65.6042 131.031 65.1875 131.781C64.7812 132.521 64.4375 133.266 64.1562 134.016C63.875 134.755 63.7344 135.443 63.7344 136.078C63.7344 136.505 63.8125 136.87 63.9688 137.172C64.1354 137.474 64.4479 137.625 64.9062 137.625C65.4062 137.625 65.9531 137.427 66.5469 137.031C67.151 136.635 67.7656 136.12 68.3906 135.484C69.026 134.849 69.6562 134.135 70.2812 133.344C70.9167 132.542 71.5156 131.734 72.0781 130.922C72.6406 130.109 73.151 129.333 73.6094 128.594C74.0781 127.854 74.4583 127.224 74.75 126.703L75.8906 127.266C75.2865 128.453 74.7031 129.562 74.1406 130.594C73.5885 131.615 73.0938 132.536 72.6562 133.359C72.2292 134.172 71.8854 134.88 71.625 135.484C71.375 136.089 71.25 136.568 71.25 136.922C71.25 137.068 71.2812 137.188 71.3438 137.281C71.4062 137.375 71.5052 137.422 71.6406 137.422C72.026 137.432 72.4479 137.266 72.9062 136.922C73.375 136.578 73.8438 136.146 74.3125 135.625C74.7917 135.104 75.2552 134.536 75.7031 133.922C76.1615 133.297 76.5729 132.714 76.9375 132.172L77.5 132.609C77.4375 132.714 77.3073 132.927 77.1094 133.25C76.9115 133.573 76.6667 133.943 76.375 134.359C76.0833 134.776 75.75 135.214 75.375 135.672C75 136.13 74.6042 136.552 74.1875 136.938C73.7708 137.312 73.3385 137.625 72.8906 137.875C72.4427 138.115 72 138.234 71.5625 138.234C71.2917 138.234 71.0469 138.188 70.8281 138.094C70.6198 138 70.4427 137.875 70.2969 137.719C70.151 137.562 70.0365 137.38 69.9531 137.172C69.8698 136.964 69.8281 136.745 69.8281 136.516C69.8281 136.245 69.8698 135.948 69.9531 135.625C70.0469 135.302 70.1771 134.958 70.3438 134.594Z" fill="white"/>
<rect x="1.5" y="1.5" width="97" height="147" stroke="white" stroke-width="3"/>
<rect x="7.5" y="7.5" width="85" height="135" stroke="white"/>
</svg>
