<svg width="1637" height="41" viewBox="0 0 1637 41" fill="none" xmlns="http://www.w3.org/2000/svg">
<path d="M376.022 7.6875C377.675 7.6875 379.198 8.22656 380.593 9.30469C381.987 10.3711 382.684 11.7656 382.684 13.4883C382.684 14.4141 382.368 15.2344 381.735 15.9492C381.102 16.6523 380.229 17.1973 379.116 17.584L378.852 17.7598L379.116 17.8828C381.261 18.2344 383.089 19.1602 384.6 20.6602C386.124 22.1602 386.886 23.9121 386.886 25.916C386.886 28.0605 385.966 29.8301 384.126 31.2246C382.298 32.6191 379.655 33.3164 376.198 33.3164C370.702 33.3164 367.526 33.293 366.671 33.2461C365.827 33.1992 365.405 32.959 365.405 32.5254C365.405 32.3145 365.464 32.1328 365.581 31.9805C365.71 31.8281 366.073 31.7168 366.671 31.6465C367.268 31.5762 367.655 31.4004 367.831 31.1191C368.007 30.8379 368.095 30.5039 368.095 30.1172V10.7812C368.095 10.3242 368.012 9.96094 367.848 9.69141C367.684 9.41016 367.309 9.26953 366.723 9.26953C366.126 9.26953 365.751 9.19336 365.598 9.04102C365.446 8.88867 365.37 8.67773 365.37 8.4082C365.37 8.19727 365.481 8.02734 365.704 7.89844C365.938 7.75781 366.22 7.6875 366.548 7.6875H376.022ZM371.012 15.4395C371.012 16.3184 371.259 16.8633 371.751 17.0742C372.255 17.2734 373.052 17.373 374.141 17.373C375.665 17.373 376.93 16.9922 377.938 16.2305C378.958 15.457 379.468 14.4258 379.468 13.1367C379.468 11.9062 378.97 10.9512 377.973 10.2715C376.977 9.58008 375.7 9.23438 374.141 9.23438C372.934 9.23438 372.108 9.35742 371.663 9.60352C371.229 9.84961 371.012 10.3184 371.012 11.0098V15.4395ZM371.188 29.8359C371.188 30.5273 371.259 31.0078 371.399 31.2773C371.54 31.5352 371.839 31.7051 372.296 31.7871C372.753 31.8574 373.585 31.8926 374.792 31.8926C377.393 31.8926 379.462 31.3125 380.997 30.1523C382.544 28.9805 383.317 27.3633 383.317 25.3008C383.317 23.3789 382.491 21.832 380.839 20.6602C379.186 19.4766 377.136 18.8848 374.686 18.8848C373.596 18.8848 372.741 19.0312 372.12 19.3242C371.499 19.6055 371.188 20.0098 371.188 20.5371V29.8359ZM397.795 10.6758C397.795 9.78516 397.185 9.30469 395.966 9.23438C395.123 9.1875 394.701 8.91211 394.701 8.4082C394.701 7.88086 395.181 7.61719 396.142 7.61719C396.599 7.61719 397.103 7.6582 397.654 7.74023C398.205 7.82227 398.673 7.86328 399.06 7.86328C399.318 7.86328 400.033 7.78125 401.205 7.61719C402.377 7.45313 403.279 7.37109 403.912 7.37109C406.326 7.37109 408.283 7.99219 409.783 9.23438C411.295 10.4766 412.05 12.0879 412.05 14.0684C412.05 15.334 411.675 16.3828 410.925 17.2148C410.187 18.0352 408.91 18.7969 407.093 19.5C406.754 19.6289 406.584 19.7637 406.584 19.9043C406.584 19.998 406.654 20.1504 406.795 20.3613C407.439 21.2754 408.652 23.2559 410.433 26.3027C412.214 29.3379 413.164 30.9258 413.281 31.0664C413.398 31.1953 413.709 31.3477 414.213 31.5234C414.716 31.6875 415.033 31.8574 415.162 32.0332C415.302 32.1973 415.373 32.3848 415.373 32.5957C415.373 32.8652 415.197 33.0938 414.845 33.2812C414.494 33.4805 414.213 33.5801 414.002 33.5801C413.463 33.5801 412.806 33.375 412.033 32.9648C411.259 32.543 410.75 32.1855 410.504 31.8926C410.046 31.3066 408.552 28.916 406.021 24.7207C404.838 22.7637 404.158 21.6621 403.982 21.416C403.349 20.502 402.728 19.916 402.119 19.6582C401.966 19.5996 401.867 19.541 401.82 19.4824C401.773 19.4121 401.75 19.2715 401.75 19.0605C401.75 18.5566 402.054 18.3047 402.664 18.3047C402.722 18.3047 402.886 18.3281 403.156 18.375C403.425 18.4102 403.689 18.4277 403.947 18.4277C405.236 18.4277 406.314 18.0117 407.181 17.1797C408.048 16.3477 408.482 15.1875 408.482 13.6992C408.482 12.6445 407.996 11.5957 407.023 10.5527C406.05 9.50977 404.703 8.98828 402.98 8.98828C402.336 8.98828 401.861 9.06445 401.556 9.2168C401.263 9.35742 401.076 9.53906 400.994 9.76172C400.923 9.97266 400.888 10.2539 400.888 10.6055V30.293C400.888 30.6797 401.052 30.9961 401.38 31.2422C401.72 31.4766 402.16 31.5938 402.699 31.5938C403.285 31.5938 403.677 31.6699 403.877 31.8223C404.076 31.9746 404.175 32.1973 404.175 32.4902C404.175 32.7715 404.046 33.0059 403.789 33.1934C403.543 33.3809 403.168 33.4746 402.664 33.4746C402.207 33.4746 401.644 33.3398 400.976 33.0703C400.32 32.8125 399.798 32.6836 399.412 32.6836C399.084 32.6836 398.591 32.8066 397.935 33.0527C397.279 33.3105 396.763 33.4395 396.388 33.4395C395.31 33.4395 394.771 33.0996 394.771 32.4199C394.771 32.1621 394.859 31.9746 395.035 31.8574C395.211 31.7285 395.65 31.6641 396.353 31.6641C396.775 31.6641 397.121 31.5703 397.39 31.3828C397.66 31.1953 397.795 30.9668 397.795 30.6973V10.6758ZM425.596 11.3613C425.596 10.6816 425.461 10.2188 425.192 9.97266C424.934 9.71484 424.594 9.52734 424.172 9.41016C423.762 9.28125 423.475 9.1582 423.311 9.04102C423.159 8.92383 423.082 8.71289 423.082 8.4082C423.082 8.23242 423.159 8.08594 423.311 7.96875C423.475 7.85156 423.662 7.79297 423.873 7.79297C424.237 7.79297 424.787 7.85742 425.526 7.98633C426.264 8.10352 426.827 8.16211 427.213 8.16211C427.565 8.16211 428.08 8.10938 428.76 8.00391C429.452 7.88672 429.967 7.82812 430.307 7.82812C430.893 7.82812 431.186 8.06836 431.186 8.54883C431.186 8.8418 431.11 9.04102 430.957 9.14648C430.805 9.25195 430.495 9.35156 430.026 9.44531C429.557 9.52734 429.217 9.77344 429.006 10.1836C428.795 10.582 428.69 11.168 428.69 11.9414V30.1875C428.69 30.5273 428.766 30.832 428.918 31.1016C429.082 31.3594 429.434 31.5645 429.973 31.7168C430.524 31.8574 430.858 32.0098 430.975 32.1738C431.092 32.3262 431.151 32.5078 431.151 32.7188C431.151 33.1406 430.787 33.3516 430.061 33.3516C429.733 33.3516 429.252 33.293 428.62 33.1758C427.987 33.0586 427.506 33 427.178 33C426.873 33 426.405 33.0469 425.772 33.1406C425.151 33.2344 424.682 33.2812 424.366 33.2812C423.487 33.2812 423.047 33.0059 423.047 32.4551C423.047 32.3027 423.094 32.168 423.188 32.0508C423.282 31.9336 423.61 31.8281 424.172 31.7344C424.746 31.6289 425.127 31.377 425.315 30.9785C425.502 30.5684 425.596 30.1113 425.596 29.6074V11.3613ZM449.284 7.65234C451.042 7.65234 453.017 8.16211 455.208 9.18164C457.411 10.1895 459.193 11.7012 460.552 13.7168C461.911 15.7324 462.591 18.082 462.591 20.7656C462.591 24.4219 461.466 27.4277 459.216 29.7832C456.966 32.1387 454.048 33.3164 450.462 33.3164L440.495 33.2461C440.226 33.2461 439.997 33.1758 439.81 33.0352C439.622 32.9062 439.529 32.7246 439.529 32.4902C439.529 32.291 439.593 32.127 439.722 31.998C439.851 31.8691 440.202 31.7754 440.777 31.7168C441.351 31.6465 441.714 31.5234 441.866 31.3477C442.03 31.1602 442.113 30.9316 442.113 30.6621V10.6758C442.113 10.1484 442.025 9.76758 441.849 9.5332C441.685 9.29883 441.503 9.16406 441.304 9.12891C441.116 9.08203 440.747 9.05859 440.196 9.05859C439.857 9.05859 439.628 9.00586 439.511 8.90039C439.394 8.7832 439.335 8.60742 439.335 8.37305C439.335 7.89258 439.722 7.65234 440.495 7.65234H449.284ZM445.101 29.6953C445.101 30.375 445.411 30.8965 446.032 31.2598C446.654 31.623 447.796 31.8047 449.46 31.8047C451.265 31.8047 452.63 31.5703 453.556 31.1016C455.126 30.293 456.398 29.0098 457.37 27.252C458.355 25.4941 458.847 23.7129 458.847 21.9082C458.847 20.3496 458.712 18.8848 458.443 17.5137C458.185 16.1309 457.71 14.8887 457.019 13.7871C456.339 12.6738 455.308 11.625 453.925 10.6406C452.542 9.65625 450.702 9.16406 448.405 9.16406C446.202 9.16406 445.101 9.64453 445.101 10.6055V29.6953ZM483.045 13.998C482.811 13.459 482.635 13.1895 482.518 13.1895C482.377 13.1895 482.166 13.5645 481.885 14.3145L478.123 22.9102L474.871 30.1523C474.777 30.375 474.73 30.5684 474.73 30.7324C474.73 30.9082 474.795 31.0664 474.924 31.207C475.064 31.3477 475.387 31.4883 475.891 31.6289C476.395 31.7695 476.711 31.9102 476.84 32.0508C476.969 32.1914 477.033 32.3496 477.033 32.5254C477.033 33.0645 476.682 33.334 475.979 33.334C475.814 33.334 475.41 33.2812 474.766 33.1758C474.133 33.082 473.605 33.0352 473.184 33.0352C472.75 33.0352 472.305 33.082 471.848 33.1758C471.391 33.2695 471.057 33.3164 470.846 33.3164C470.553 33.3164 470.312 33.2344 470.125 33.0703C469.938 32.918 469.844 32.7363 469.844 32.5254C469.844 32.2207 469.902 32.0215 470.02 31.9277C470.137 31.834 470.354 31.7637 470.67 31.7168C471.584 31.5645 472.211 31.2246 472.551 30.6973C472.902 30.1582 473.793 28.2656 475.223 25.0195L479.477 15.5273C480.52 13.2539 481.188 11.748 481.48 11.0098C481.785 10.2598 481.938 9.67969 481.938 9.26953C481.938 9.12891 481.885 8.87695 481.779 8.51367C481.686 8.13867 481.639 7.86914 481.639 7.70508C481.639 7.36523 481.82 7.19531 482.184 7.19531C482.781 7.19531 483.262 7.44727 483.625 7.95117C483.988 8.45508 484.475 9.4043 485.084 10.7988L489.953 21.8027C491.723 25.8105 492.842 28.2891 493.311 29.2383C493.779 30.1875 494.16 30.8027 494.453 31.084C494.758 31.3535 495.115 31.5527 495.525 31.6816C495.947 31.8105 496.234 31.9395 496.387 32.0684C496.539 32.1855 496.615 32.3906 496.615 32.6836C496.615 33.082 496.246 33.2812 495.508 33.2812C495.262 33.2812 494.811 33.2461 494.154 33.1758C493.51 33.1055 492.865 33.0703 492.221 33.0703C491.576 33.0703 490.902 33.1113 490.199 33.1934C489.508 33.2754 489.033 33.3164 488.775 33.3164C488.377 33.3164 488.061 33.2461 487.826 33.1055C487.592 32.9766 487.475 32.7949 487.475 32.5605C487.475 32.3613 487.545 32.1973 487.686 32.0684C487.826 31.9395 488.201 31.8457 488.811 31.7871C489.432 31.7285 489.83 31.5996 490.006 31.4004C490.193 31.1895 490.287 30.9316 490.287 30.627C490.287 30.2988 489.953 29.3965 489.285 27.9199C488.617 26.4316 488.201 25.6406 488.037 25.5469C487.873 25.4531 487.557 25.4062 487.088 25.4062H479.23C478.926 25.4062 478.65 25.3125 478.404 25.125C478.158 24.9258 478.035 24.6973 478.035 24.4395C478.035 24.2402 478.129 24.0645 478.316 23.9121C478.516 23.7598 478.738 23.6836 478.984 23.6836H486.543C486.965 23.6836 487.176 23.6074 487.176 23.4551C487.176 23.3613 487.094 23.1328 486.93 22.7695L483.045 13.998ZM517.843 31.6289C518.276 31.6289 518.651 31.5293 518.968 31.3301C519.296 31.1191 519.524 30.6621 519.653 29.959C519.794 29.2559 519.952 28.834 520.128 28.6934C520.304 28.541 520.514 28.4648 520.761 28.4648C520.936 28.4648 521.118 28.5586 521.305 28.7461C521.493 28.9336 521.587 29.1855 521.587 29.502C521.587 30.5215 521.657 31.541 521.798 32.5605C521.798 33.1934 521.493 33.4805 520.884 33.4219C520.485 33.375 519.87 33.3516 519.038 33.3516H505.345C504.266 33.3516 503.727 33.0762 503.727 32.5254C503.727 32.1621 503.821 31.9336 504.009 31.8398C504.208 31.7344 504.507 31.6758 504.905 31.6641C505.667 31.6172 506.141 31.418 506.329 31.0664C506.516 30.7031 506.61 30.293 506.61 29.8359V11.3965C506.61 10.9629 506.505 10.5762 506.294 10.2363C506.083 9.88477 505.62 9.59766 504.905 9.375C504.202 9.15234 503.774 8.94727 503.622 8.75977C503.481 8.56055 503.411 8.33789 503.411 8.0918C503.411 7.95117 503.499 7.81641 503.675 7.6875C503.85 7.54688 504.061 7.47656 504.307 7.47656C504.471 7.47656 504.864 7.58789 505.485 7.81055C506.118 8.02148 506.815 8.12695 507.577 8.12695C508.526 8.12695 509.423 8.00977 510.266 7.77539C511.11 7.5293 511.655 7.40625 511.901 7.40625C512.171 7.40625 512.405 7.50586 512.604 7.70508C512.815 7.89258 512.921 8.10352 512.921 8.33789C512.921 8.53711 512.856 8.70703 512.727 8.84766C512.61 8.97656 512.294 9.09375 511.778 9.19922C511.122 9.32812 510.659 9.50391 510.389 9.72656C509.932 10.1133 509.704 10.7695 509.704 11.6953V29.291C509.704 30.1699 509.839 30.7793 510.108 31.1191C510.389 31.459 510.794 31.6289 511.321 31.6289H517.843ZM563.655 29.9414C563.655 30.3398 563.754 30.6973 563.954 31.0137C564.153 31.3301 564.551 31.5703 565.149 31.7344C565.746 31.8984 566.104 32.0449 566.221 32.1738C566.338 32.3027 566.397 32.4609 566.397 32.6484C566.397 32.8125 566.274 32.9707 566.028 33.123C565.782 33.2754 565.471 33.3516 565.096 33.3516C564.803 33.3516 564.317 33.2988 563.637 33.1934C562.969 33.0879 562.518 33.0352 562.284 33.0352C561.932 33.0352 561.446 33.082 560.825 33.1758C560.215 33.2695 559.782 33.3164 559.524 33.3164C558.68 33.3164 558.258 33.0645 558.258 32.5605C558.258 32.2676 558.329 32.0742 558.469 31.9805C558.621 31.8867 558.897 31.8105 559.295 31.752C559.694 31.6816 560.022 31.5293 560.28 31.2949C560.538 31.0488 560.666 30.5273 560.666 29.7305V19.1836C560.666 18.8086 560.549 18.5156 560.315 18.3047C560.092 18.0938 559.577 17.9883 558.768 17.9883H551.069C550.413 17.9883 549.991 17.918 549.803 17.7773C549.627 17.6367 549.539 17.4258 549.539 17.1445C549.539 16.8633 549.657 16.6582 549.891 16.5293C550.137 16.4004 550.577 16.3359 551.209 16.3359H559.524C559.981 16.3359 560.274 16.2656 560.403 16.125C560.532 15.9727 560.596 15.6914 560.596 15.2812C560.596 12.6914 560.561 11.127 560.491 10.5879C560.432 10.0371 559.946 9.63867 559.032 9.39258C558.551 9.25195 558.252 9.10547 558.135 8.95312C558.03 8.80078 557.977 8.61914 557.977 8.4082C557.977 8.26758 558.065 8.13281 558.241 8.00391C558.416 7.86328 558.627 7.79297 558.873 7.79297C559.33 7.79297 559.887 7.8457 560.543 7.95117C561.2 8.04492 561.721 8.0918 562.108 8.0918C562.506 8.0918 562.993 8.05078 563.567 7.96875C564.153 7.875 564.709 7.82812 565.237 7.82812C565.799 7.82812 566.08 8.05664 566.08 8.51367C566.08 8.80664 566.01 9 565.87 9.09375C565.729 9.1875 565.459 9.26953 565.061 9.33984C564.663 9.41016 564.329 9.58008 564.059 9.84961C563.789 10.1074 563.655 10.6582 563.655 11.502V29.9414ZM548.643 29.9414C548.643 30.3047 548.737 30.6328 548.924 30.9258C549.123 31.2188 549.522 31.4648 550.12 31.6641C550.717 31.8516 551.075 32.0156 551.192 32.1562C551.321 32.2969 551.385 32.4609 551.385 32.6484C551.385 32.8125 551.262 32.9707 551.016 33.123C550.77 33.2754 550.459 33.3516 550.084 33.3516C549.791 33.3516 549.305 33.2988 548.625 33.1934C547.957 33.0879 547.506 33.0352 547.272 33.0352C546.92 33.0352 546.434 33.082 545.813 33.1758C545.204 33.2695 544.77 33.3164 544.512 33.3164C543.668 33.3164 543.246 33.0645 543.246 32.5605C543.246 32.2676 543.317 32.0742 543.457 31.9805C543.598 31.8867 543.862 31.8105 544.248 31.752C544.635 31.6816 544.952 31.5293 545.198 31.2949C545.455 31.0488 545.584 30.5273 545.584 29.7305V11.2207C545.584 10.8223 545.496 10.4648 545.321 10.1484C545.145 9.82031 544.764 9.58008 544.178 9.42773C543.604 9.26367 543.258 9.10547 543.141 8.95312C543.024 8.80078 542.965 8.61914 542.965 8.4082C542.965 8.26758 543.053 8.13281 543.229 8.00391C543.405 7.86328 543.616 7.79297 543.862 7.79297C544.319 7.79297 544.875 7.8457 545.532 7.95117C546.188 8.04492 546.709 8.0918 547.096 8.0918C547.495 8.0918 547.981 8.05078 548.555 7.96875C549.141 7.875 549.698 7.82812 550.225 7.82812C550.788 7.82812 551.069 8.05664 551.069 8.51367C551.069 8.80664 550.993 9.00586 550.84 9.11133C550.7 9.20508 550.43 9.29883 550.032 9.39258C549.633 9.47461 549.299 9.65039 549.03 9.91992C548.772 10.1777 548.643 10.7051 548.643 11.502V29.9414ZM587.044 13.998C586.81 13.459 586.634 13.1895 586.517 13.1895C586.376 13.1895 586.165 13.5645 585.884 14.3145L582.122 22.9102L578.87 30.1523C578.777 30.375 578.73 30.5684 578.73 30.7324C578.73 30.9082 578.794 31.0664 578.923 31.207C579.064 31.3477 579.386 31.4883 579.89 31.6289C580.394 31.7695 580.71 31.9102 580.839 32.0508C580.968 32.1914 581.032 32.3496 581.032 32.5254C581.032 33.0645 580.681 33.334 579.978 33.334C579.814 33.334 579.409 33.2812 578.765 33.1758C578.132 33.082 577.605 33.0352 577.183 33.0352C576.749 33.0352 576.304 33.082 575.847 33.1758C575.39 33.2695 575.056 33.3164 574.845 33.3164C574.552 33.3164 574.312 33.2344 574.124 33.0703C573.937 32.918 573.843 32.7363 573.843 32.5254C573.843 32.2207 573.902 32.0215 574.019 31.9277C574.136 31.834 574.353 31.7637 574.669 31.7168C575.583 31.5645 576.21 31.2246 576.55 30.6973C576.902 30.1582 577.792 28.2656 579.222 25.0195L583.476 15.5273C584.519 13.2539 585.187 11.748 585.48 11.0098C585.784 10.2598 585.937 9.67969 585.937 9.26953C585.937 9.12891 585.884 8.87695 585.779 8.51367C585.685 8.13867 585.638 7.86914 585.638 7.70508C585.638 7.36523 585.82 7.19531 586.183 7.19531C586.78 7.19531 587.261 7.44727 587.624 7.95117C587.988 8.45508 588.474 9.4043 589.083 10.7988L593.952 21.8027C595.722 25.8105 596.841 28.2891 597.31 29.2383C597.779 30.1875 598.159 30.8027 598.452 31.084C598.757 31.3535 599.114 31.5527 599.525 31.6816C599.946 31.8105 600.234 31.9395 600.386 32.0684C600.538 32.1855 600.614 32.3906 600.614 32.6836C600.614 33.082 600.245 33.2812 599.507 33.2812C599.261 33.2812 598.81 33.2461 598.154 33.1758C597.509 33.1055 596.864 33.0703 596.22 33.0703C595.575 33.0703 594.902 33.1113 594.198 33.1934C593.507 33.2754 593.032 33.3164 592.775 33.3164C592.376 33.3164 592.06 33.2461 591.825 33.1055C591.591 32.9766 591.474 32.7949 591.474 32.5605C591.474 32.3613 591.544 32.1973 591.685 32.0684C591.825 31.9395 592.2 31.8457 592.81 31.7871C593.431 31.7285 593.829 31.5996 594.005 31.4004C594.193 31.1895 594.286 30.9316 594.286 30.627C594.286 30.2988 593.952 29.3965 593.284 27.9199C592.616 26.4316 592.2 25.6406 592.036 25.5469C591.872 25.4531 591.556 25.4062 591.087 25.4062H583.23C582.925 25.4062 582.65 25.3125 582.404 25.125C582.157 24.9258 582.034 24.6973 582.034 24.4395C582.034 24.2402 582.128 24.0645 582.316 23.9121C582.515 23.7598 582.738 23.6836 582.984 23.6836H590.542C590.964 23.6836 591.175 23.6074 591.175 23.4551C591.175 23.3613 591.093 23.1328 590.929 22.7695L587.044 13.998ZM610.574 11.3613C610.574 10.6816 610.439 10.2188 610.17 9.97266C609.912 9.71484 609.572 9.52734 609.15 9.41016C608.74 9.28125 608.453 9.1582 608.289 9.04102C608.137 8.92383 608.061 8.71289 608.061 8.4082C608.061 8.23242 608.137 8.08594 608.289 7.96875C608.453 7.85156 608.641 7.79297 608.852 7.79297C609.215 7.79297 609.766 7.85742 610.504 7.98633C611.242 8.10352 611.805 8.16211 612.191 8.16211C612.543 8.16211 613.059 8.10938 613.738 8.00391C614.43 7.88672 614.945 7.82812 615.285 7.82812C615.871 7.82812 616.164 8.06836 616.164 8.54883C616.164 8.8418 616.088 9.04102 615.936 9.14648C615.783 9.25195 615.473 9.35156 615.004 9.44531C614.535 9.52734 614.195 9.77344 613.984 10.1836C613.773 10.582 613.668 11.168 613.668 11.9414V30.1875C613.668 30.5273 613.744 30.832 613.896 31.1016C614.061 31.3594 614.412 31.5645 614.951 31.7168C615.502 31.8574 615.836 32.0098 615.953 32.1738C616.07 32.3262 616.129 32.5078 616.129 32.7188C616.129 33.1406 615.766 33.3516 615.039 33.3516C614.711 33.3516 614.23 33.293 613.598 33.1758C612.965 33.0586 612.484 33 612.156 33C611.852 33 611.383 33.0469 610.75 33.1406C610.129 33.2344 609.66 33.2812 609.344 33.2812C608.465 33.2812 608.025 33.0059 608.025 32.4551C608.025 32.3027 608.072 32.168 608.166 32.0508C608.26 31.9336 608.588 31.8281 609.15 31.7344C609.725 31.6289 610.105 31.377 610.293 30.9785C610.48 30.5684 610.574 30.1113 610.574 29.6074V11.3613ZM627.161 10.6758C627.161 9.78516 626.552 9.30469 625.333 9.23438C624.489 9.1875 624.067 8.91211 624.067 8.4082C624.067 7.88086 624.548 7.61719 625.509 7.61719C625.966 7.61719 626.47 7.6582 627.02 7.74023C627.571 7.82227 628.04 7.86328 628.427 7.86328C628.684 7.86328 629.399 7.78125 630.571 7.61719C631.743 7.45313 632.645 7.37109 633.278 7.37109C635.692 7.37109 637.649 7.99219 639.149 9.23438C640.661 10.4766 641.417 12.0879 641.417 14.0684C641.417 15.334 641.042 16.3828 640.292 17.2148C639.554 18.0352 638.276 18.7969 636.46 19.5C636.12 19.6289 635.95 19.7637 635.95 19.9043C635.95 19.998 636.02 20.1504 636.161 20.3613C636.805 21.2754 638.018 23.2559 639.8 26.3027C641.581 29.3379 642.53 30.9258 642.647 31.0664C642.764 31.1953 643.075 31.3477 643.579 31.5234C644.083 31.6875 644.399 31.8574 644.528 32.0332C644.669 32.1973 644.739 32.3848 644.739 32.5957C644.739 32.8652 644.563 33.0938 644.212 33.2812C643.86 33.4805 643.579 33.5801 643.368 33.5801C642.829 33.5801 642.173 33.375 641.399 32.9648C640.626 32.543 640.116 32.1855 639.87 31.8926C639.413 31.3066 637.919 28.916 635.388 24.7207C634.204 22.7637 633.524 21.6621 633.348 21.416C632.716 20.502 632.095 19.916 631.485 19.6582C631.333 19.5996 631.233 19.541 631.186 19.4824C631.139 19.4121 631.116 19.2715 631.116 19.0605C631.116 18.5566 631.421 18.3047 632.03 18.3047C632.089 18.3047 632.253 18.3281 632.522 18.375C632.792 18.4102 633.055 18.4277 633.313 18.4277C634.602 18.4277 635.68 18.0117 636.548 17.1797C637.415 16.3477 637.848 15.1875 637.848 13.6992C637.848 12.6445 637.362 11.5957 636.389 10.5527C635.417 9.50977 634.069 8.98828 632.346 8.98828C631.702 8.98828 631.227 9.06445 630.923 9.2168C630.63 9.35742 630.442 9.53906 630.36 9.76172C630.29 9.97266 630.255 10.2539 630.255 10.6055V30.293C630.255 30.6797 630.419 30.9961 630.747 31.2422C631.087 31.4766 631.526 31.5938 632.065 31.5938C632.651 31.5938 633.044 31.6699 633.243 31.8223C633.442 31.9746 633.542 32.1973 633.542 32.4902C633.542 32.7715 633.413 33.0059 633.155 33.1934C632.909 33.3809 632.534 33.4746 632.03 33.4746C631.573 33.4746 631.011 33.3398 630.343 33.0703C629.686 32.8125 629.165 32.6836 628.778 32.6836C628.45 32.6836 627.958 32.8066 627.302 33.0527C626.645 33.3105 626.13 33.4395 625.755 33.4395C624.677 33.4395 624.138 33.0996 624.138 32.4199C624.138 32.1621 624.225 31.9746 624.401 31.8574C624.577 31.7285 625.016 31.6641 625.72 31.6641C626.141 31.6641 626.487 31.5703 626.757 31.3828C627.026 31.1953 627.161 30.9668 627.161 30.6973V10.6758ZM676.506 15.6152C676.565 15.709 676.711 15.8672 676.946 16.0898C677.18 16.3008 677.297 16.5234 677.297 16.7578C677.297 17.0156 677.104 17.1445 676.717 17.1445C676.612 17.1445 676.401 17.1328 676.084 17.1094C675.768 17.0742 675.51 17.0566 675.311 17.0566C674.174 17.0566 672.873 17.6602 671.409 18.8672C669.955 20.0742 669.229 21.9434 669.229 24.4746C669.229 26.502 669.932 28.3125 671.338 29.9062C672.745 31.4883 674.391 32.2793 676.278 32.2793C678.164 32.2793 679.946 31.6406 681.621 30.3633C683.297 29.0742 684.135 27.5156 684.135 25.6875C684.135 24.3164 683.743 23.2324 682.957 22.4355C682.172 21.627 681.34 21.2227 680.461 21.2227C679.77 21.2227 679.184 21.4512 678.704 21.9082C678.223 22.3535 677.983 22.9453 677.983 23.6836C677.983 24.1758 678.223 24.6035 678.704 24.9668C678.961 25.1543 679.09 25.3125 679.09 25.4414C679.09 25.6055 679.002 25.7578 678.827 25.8984C678.651 26.0273 678.475 26.0918 678.299 26.0918C677.877 26.0918 677.491 25.8574 677.139 25.3887C676.788 24.9082 676.612 24.3105 676.612 23.5957C676.612 22.7402 676.817 21.9258 677.227 21.1523C677.637 20.3672 678.375 19.5703 679.442 18.7617C680.508 17.9414 681.715 17.3496 683.063 16.9863C684.411 16.623 686.18 16.4414 688.371 16.4414C690.364 16.4414 691.975 16.2305 693.205 15.8086C694.448 15.375 695.069 14.6953 695.069 13.7695C695.069 13.6641 695.01 13.5059 694.893 13.2949C694.776 13.0723 694.717 12.8965 694.717 12.7676C694.717 12.3574 694.969 12.1523 695.473 12.1523C695.766 12.1523 696.006 12.3223 696.194 12.6621C696.381 12.9902 696.475 13.3477 696.475 13.7344C696.475 14.4609 696.176 15.1992 695.579 15.9492C694.993 16.6875 694.172 17.3438 693.118 17.918C692.075 18.4805 690.903 18.8555 689.602 19.043C688.313 19.2305 686.526 19.3242 684.241 19.3242C682.94 19.3242 682.12 19.3945 681.78 19.5352C681.452 19.6641 681.288 19.7695 681.288 19.8516C681.288 19.9336 681.393 19.9746 681.604 19.9746C682.647 19.9746 683.625 20.5254 684.539 21.627C685.465 22.7285 685.928 24.1055 685.928 25.7578C685.928 27.1992 685.459 28.5176 684.522 29.7129C683.584 30.8965 682.319 31.8398 680.725 32.543C679.131 33.2344 677.567 33.5801 676.032 33.5801C672.985 33.5801 670.471 32.666 668.491 30.8379C666.51 29.0098 665.52 26.7422 665.52 24.0352C665.52 21.9258 666.364 20.0449 668.051 18.3926C669.75 16.7285 671.713 15.8027 673.94 15.6152C674.151 15.5918 674.256 15.5449 674.256 15.4746C674.256 15.4043 674.174 15.2578 674.01 15.0352L669.299 8.4082C669.194 8.26758 669.141 8.15039 669.141 8.05664C669.141 7.82227 669.364 7.68164 669.809 7.63477C670.266 7.57617 671.057 7.54688 672.182 7.54688H680.321C680.778 7.54688 681.118 7.58203 681.34 7.65234C681.563 7.72266 681.733 7.91016 681.85 8.21484C681.979 8.50781 682.043 8.98242 682.043 9.63867C682.043 10.7285 681.961 11.3906 681.797 11.625C681.633 11.8594 681.393 11.9766 681.077 11.9766C680.748 11.9766 680.467 11.7246 680.233 11.2207C680.022 10.7637 679.788 10.5352 679.53 10.5352H674.661C673.969 10.5352 673.623 10.7461 673.623 11.168C673.623 11.3789 673.705 11.6016 673.87 11.8359L676.506 15.6152ZM741.602 29.5371C741.602 30.0176 741.713 30.4453 741.936 30.8203C742.158 31.1836 742.604 31.4355 743.271 31.5762C743.951 31.7051 744.355 31.8398 744.484 31.9805C744.613 32.1211 744.678 32.291 744.678 32.4902C744.678 32.7012 744.584 32.877 744.396 33.0176C744.221 33.1699 743.963 33.2461 743.623 33.2461C743.365 33.2461 742.867 33.1875 742.129 33.0703C741.391 32.9531 740.775 32.8945 740.283 32.8945C739.955 32.8945 739.369 32.9531 738.525 33.0703C737.682 33.1875 737.078 33.2461 736.715 33.2461C735.965 33.2461 735.59 32.9707 735.59 32.4199C735.59 32.1504 735.672 31.9746 735.836 31.8926C736 31.7988 736.258 31.7344 736.609 31.6992C737.465 31.6055 737.998 31.4473 738.209 31.2246C738.432 30.9902 738.543 30.4512 738.543 29.6074V14.5254C738.543 13.8809 738.514 13.5586 738.455 13.5586C738.373 13.5586 738.18 13.8691 737.875 14.4902L735.15 19.8164C734.014 22.043 732.977 24.0234 732.039 25.7578C731.113 27.4805 730.615 28.4062 730.545 28.5352C730.486 28.6641 730.416 28.7695 730.334 28.8516C730.252 28.9336 730.123 28.9746 729.947 28.9746C729.654 28.9746 729.391 28.7461 729.156 28.2891L722.6 15.2812C722.295 14.6719 722.107 14.3672 722.037 14.3672C721.979 14.3672 721.949 14.6719 721.949 15.2812V30.1875C721.949 30.6211 722.137 30.9844 722.512 31.2773C722.887 31.5586 723.25 31.6992 723.602 31.6992C724.586 31.6992 725.078 31.9746 725.078 32.5254C725.078 33.0293 724.65 33.2812 723.795 33.2812C723.654 33.2812 723.256 33.2168 722.6 33.0879C721.955 32.959 721.498 32.8945 721.229 32.8945C720.877 32.8945 720.391 32.9648 719.77 33.1055C719.16 33.2461 718.727 33.3164 718.469 33.3164C718.094 33.3164 717.789 33.2168 717.555 33.0176C717.32 32.8301 717.203 32.6309 717.203 32.4199C717.203 32.209 717.338 32.0273 717.607 31.875C717.889 31.7109 718.211 31.6289 718.574 31.6289C719.723 31.6289 720.297 30.9551 720.297 29.6074V11.2207C720.297 10.7402 720.145 10.3301 719.84 9.99023C719.535 9.63867 719.102 9.42773 718.539 9.35742C717.977 9.27539 717.607 9.15234 717.432 8.98828C717.256 8.82422 717.168 8.61914 717.168 8.37305C717.168 8.19727 717.279 8.03906 717.502 7.89844C717.736 7.75781 717.971 7.6875 718.205 7.6875C718.451 7.6875 718.756 7.74023 719.119 7.8457C719.482 7.93945 719.775 7.98633 719.998 7.98633C720.221 7.98633 720.502 7.93945 720.842 7.8457C721.182 7.74023 721.457 7.6875 721.668 7.6875C721.949 7.6875 722.172 7.79883 722.336 8.02148C722.512 8.24414 722.752 8.68945 723.057 9.35742L727.047 17.4082L730.387 24.1055C730.527 24.3867 730.633 24.5273 730.703 24.5273C730.785 24.5273 730.891 24.3984 731.02 24.1406C734.641 17.3438 737.178 12.5156 738.631 9.65625C739.064 8.8125 739.434 8.2793 739.738 8.05664C740.055 7.83398 740.389 7.72266 740.74 7.72266C740.904 7.72266 741.18 7.74609 741.566 7.79297C741.953 7.83984 742.246 7.86328 742.445 7.86328C742.633 7.86328 742.867 7.83398 743.148 7.77539C743.441 7.7168 743.623 7.6875 743.693 7.6875C744.326 7.6875 744.643 7.93945 744.643 8.44336C744.643 8.85352 744.338 9.05859 743.729 9.05859C743.225 9.05859 742.785 9.24023 742.41 9.60352C742.035 9.95508 741.807 10.2129 741.725 10.377C741.643 10.5293 741.602 10.9043 741.602 11.502V29.5371ZM764.815 13.998C764.581 13.459 764.405 13.1895 764.288 13.1895C764.147 13.1895 763.936 13.5645 763.655 14.3145L759.893 22.9102L756.641 30.1523C756.548 30.375 756.501 30.5684 756.501 30.7324C756.501 30.9082 756.565 31.0664 756.694 31.207C756.835 31.3477 757.157 31.4883 757.661 31.6289C758.165 31.7695 758.481 31.9102 758.61 32.0508C758.739 32.1914 758.804 32.3496 758.804 32.5254C758.804 33.0645 758.452 33.334 757.749 33.334C757.585 33.334 757.18 33.2812 756.536 33.1758C755.903 33.082 755.376 33.0352 754.954 33.0352C754.52 33.0352 754.075 33.082 753.618 33.1758C753.161 33.2695 752.827 33.3164 752.616 33.3164C752.323 33.3164 752.083 33.2344 751.895 33.0703C751.708 32.918 751.614 32.7363 751.614 32.5254C751.614 32.2207 751.673 32.0215 751.79 31.9277C751.907 31.834 752.124 31.7637 752.44 31.7168C753.354 31.5645 753.981 31.2246 754.321 30.6973C754.673 30.1582 755.563 28.2656 756.993 25.0195L761.247 15.5273C762.29 13.2539 762.958 11.748 763.251 11.0098C763.555 10.2598 763.708 9.67969 763.708 9.26953C763.708 9.12891 763.655 8.87695 763.55 8.51367C763.456 8.13867 763.409 7.86914 763.409 7.70508C763.409 7.36523 763.591 7.19531 763.954 7.19531C764.552 7.19531 765.032 7.44727 765.395 7.95117C765.759 8.45508 766.245 9.4043 766.854 10.7988L771.723 21.8027C773.493 25.8105 774.612 28.2891 775.081 29.2383C775.55 30.1875 775.93 30.8027 776.223 31.084C776.528 31.3535 776.886 31.5527 777.296 31.6816C777.718 31.8105 778.005 31.9395 778.157 32.0684C778.309 32.1855 778.386 32.3906 778.386 32.6836C778.386 33.082 778.016 33.2812 777.278 33.2812C777.032 33.2812 776.581 33.2461 775.925 33.1758C775.28 33.1055 774.636 33.0703 773.991 33.0703C773.346 33.0703 772.673 33.1113 771.97 33.1934C771.278 33.2754 770.804 33.3164 770.546 33.3164C770.147 33.3164 769.831 33.2461 769.596 33.1055C769.362 32.9766 769.245 32.7949 769.245 32.5605C769.245 32.3613 769.315 32.1973 769.456 32.0684C769.596 31.9395 769.971 31.8457 770.581 31.7871C771.202 31.7285 771.6 31.5996 771.776 31.4004C771.964 31.1895 772.057 30.9316 772.057 30.627C772.057 30.2988 771.723 29.3965 771.055 27.9199C770.388 26.4316 769.971 25.6406 769.807 25.5469C769.643 25.4531 769.327 25.4062 768.858 25.4062H761.001C760.696 25.4062 760.421 25.3125 760.175 25.125C759.929 24.9258 759.805 24.6973 759.805 24.4395C759.805 24.2402 759.899 24.0645 760.087 23.9121C760.286 23.7598 760.509 23.6836 760.755 23.6836H768.313C768.735 23.6836 768.946 23.6074 768.946 23.4551C768.946 23.3613 768.864 23.1328 768.7 22.7695L764.815 13.998ZM796.589 17.584C796.379 17.877 796.273 18.0879 796.273 18.2168C796.273 18.3105 796.32 18.4219 796.414 18.5508L805.449 30.7148C805.73 31.0195 806.041 31.2422 806.38 31.3828C806.732 31.5234 807.019 31.5938 807.242 31.5938C807.476 31.5938 807.687 31.6582 807.875 31.7871C808.062 31.916 808.156 32.0801 808.156 32.2793C808.156 32.5957 808.009 32.8418 807.716 33.0176C807.435 33.1934 807.078 33.2812 806.644 33.2812C805.73 33.2812 804.728 32.9297 803.638 32.2266C802.56 31.5117 801.582 30.5684 800.703 29.3965L794.427 21.1172C794.298 20.9531 794.205 20.8711 794.146 20.8711C794.087 20.8711 794.005 20.9414 793.9 21.082L791.615 24C791.521 24.1289 791.474 24.2871 791.474 24.4746V30.2578C791.474 30.5742 791.556 30.8496 791.72 31.084C791.896 31.3184 792.259 31.4883 792.81 31.5938C793.361 31.6992 793.689 31.8164 793.795 31.9453C793.912 32.0742 793.97 32.2324 793.97 32.4199C793.97 32.6309 793.824 32.8242 793.531 33C793.238 33.1641 792.804 33.2461 792.23 33.2461C791.961 33.2461 791.58 33.1875 791.087 33.0703C790.595 32.9531 790.162 32.8945 789.787 32.8945C789.271 32.8945 788.697 32.9648 788.064 33.1055C787.443 33.2461 786.986 33.3164 786.693 33.3164C786.412 33.3164 786.142 33.2285 785.884 33.0527C785.627 32.8887 785.498 32.666 785.498 32.3848C785.498 32.1855 785.556 32.0215 785.673 31.8926C785.791 31.752 786.171 31.6582 786.816 31.6113C787.461 31.5527 787.882 31.3418 788.082 30.9785C788.281 30.6035 788.38 30.1758 788.38 29.6953V11.291C788.38 10.834 788.281 10.4297 788.082 10.0781C787.894 9.72656 787.484 9.51562 786.851 9.44531C786.23 9.375 785.861 9.27539 785.744 9.14648C785.627 9.00586 785.568 8.83594 785.568 8.63672C785.568 8.4375 785.697 8.23242 785.955 8.02148C786.212 7.79883 786.564 7.6875 787.009 7.6875C787.455 7.6875 788 7.75781 788.644 7.89844C789.3 8.02734 789.851 8.0918 790.296 8.0918C790.578 8.0918 790.935 8.02148 791.369 7.88086C791.814 7.72852 792.318 7.65234 792.88 7.65234C793.337 7.65234 793.707 7.74023 793.988 7.91602C794.281 8.08008 794.427 8.2793 794.427 8.51367C794.427 8.68945 794.357 8.84766 794.216 8.98828C794.076 9.11719 793.748 9.25195 793.232 9.39258C792.716 9.52148 792.353 9.63867 792.142 9.74414C791.943 9.83789 791.779 10.0254 791.65 10.3066C791.533 10.5879 791.474 11.0098 791.474 11.5723V21.082L791.527 21.4336L791.773 21.1875L799.578 10.9395C799.964 10.459 800.158 10.1074 800.158 9.88477C800.158 9.74414 800.093 9.63281 799.964 9.55078C799.847 9.45703 799.537 9.38672 799.033 9.33984C798.529 9.29297 798.201 9.20508 798.048 9.07617C797.896 8.93555 797.82 8.75977 797.82 8.54883C797.82 8.2793 797.943 8.0625 798.189 7.89844C798.447 7.73438 798.752 7.65234 799.103 7.65234C799.42 7.65234 799.824 7.69922 800.316 7.79297C800.82 7.875 801.148 7.91602 801.3 7.91602C801.511 7.91602 801.892 7.86914 802.443 7.77539C803.005 7.66992 803.433 7.61719 803.726 7.61719C804.043 7.61719 804.3 7.70508 804.5 7.88086C804.699 8.05664 804.798 8.2793 804.798 8.54883C804.798 8.70117 804.746 8.83008 804.64 8.93555C804.546 9.04102 804.166 9.19336 803.498 9.39258C802.83 9.5918 802.314 9.9375 801.951 10.4297L796.589 17.584ZM829.928 31.7695C830.526 31.7695 830.977 31.6113 831.282 31.2949C831.598 30.9785 831.756 30.5742 831.756 30.082C831.756 29.6367 831.856 29.2852 832.055 29.0273C832.254 28.7578 832.489 28.623 832.758 28.623C833.028 28.623 833.25 28.7461 833.426 28.9922C833.614 29.2383 833.707 29.5664 833.707 29.9766C833.707 30.3867 833.725 30.832 833.76 31.3125C833.795 31.7812 833.813 32.1035 833.813 32.2793C833.813 32.7598 833.743 33.0703 833.602 33.2109C833.473 33.3633 833.127 33.4395 832.565 33.4395H818.344C817.348 33.4395 816.663 33.3633 816.288 33.2109C815.924 33.0586 815.743 32.8301 815.743 32.5254C815.743 32.0449 816.077 31.8047 816.745 31.8047C817.6 31.8047 818.157 31.6699 818.414 31.4004C818.672 31.1191 818.801 30.6797 818.801 30.082V13.998C818.801 12.2637 818.772 11.1152 818.713 10.5527C818.655 9.99023 818.508 9.63281 818.274 9.48047C818.039 9.31641 817.571 9.23438 816.868 9.23438C816.446 9.23438 816.118 9.1582 815.883 9.00586C815.661 8.8418 815.549 8.63672 815.549 8.39062C815.549 8.16797 815.649 7.97461 815.848 7.81055C816.047 7.63477 816.299 7.54688 816.604 7.54688H830.139C830.678 7.54688 831.03 7.6582 831.194 7.88086C831.358 8.10352 831.475 8.43164 831.545 8.86523C831.627 9.29883 831.668 10.0137 831.668 11.0098C831.668 11.4668 831.475 11.6953 831.088 11.6953C830.866 11.6953 830.666 11.6309 830.491 11.502C830.327 11.3613 830.139 11.0215 829.928 10.4824C829.729 9.93164 829.518 9.58008 829.295 9.42773C829.084 9.27539 828.838 9.19922 828.557 9.19922H823.741C822.932 9.19922 822.422 9.31641 822.211 9.55078C822 9.77344 821.895 10.1133 821.895 10.5703V14.2793C821.895 15.1465 822.012 15.7207 822.246 16.002C822.481 16.2715 822.955 16.4062 823.67 16.4062H828.346C828.733 16.4062 829.026 16.2539 829.225 15.9492C829.424 15.6328 829.524 15.2812 829.524 14.8945C829.524 14.6953 829.606 14.5312 829.77 14.4023C829.934 14.2617 830.127 14.1914 830.35 14.1914C830.584 14.1914 830.778 14.2676 830.93 14.4199C831.082 14.5723 831.159 14.7891 831.159 15.0703C831.159 15.3164 831.118 15.6738 831.036 16.1426C830.965 16.5996 830.93 16.9746 830.93 17.2676C830.93 17.7129 830.977 18.1816 831.071 18.6738C831.176 19.166 831.229 19.4648 831.229 19.5703C831.229 19.8398 831.141 20.0625 830.965 20.2383C830.789 20.4141 830.584 20.502 830.35 20.502C830.104 20.502 829.899 20.3965 829.735 20.1855C829.571 19.9629 829.489 19.6641 829.489 19.2891C829.489 18.8438 829.371 18.5273 829.137 18.3398C828.903 18.1523 828.516 18.0586 827.977 18.0586H823.336C822.914 18.0586 822.569 18.1465 822.299 18.3223C822.03 18.4863 821.895 18.7324 821.895 19.0605V30.293C821.895 30.8789 822.041 31.2715 822.334 31.4707C822.639 31.6699 823.155 31.7695 823.881 31.7695H829.928ZM860.261 10.9395C860.261 9.84961 859.599 9.30469 858.275 9.30469C857.607 9.30469 857.273 9.0293 857.273 8.47852C857.273 7.95117 857.7 7.6875 858.556 7.6875C858.825 7.6875 859.212 7.74023 859.716 7.8457C860.22 7.93945 860.601 7.98633 860.859 7.98633C861.21 7.98633 861.714 7.93359 862.37 7.82812C863.027 7.71094 863.519 7.65234 863.847 7.65234C864.093 7.65234 864.321 7.72266 864.532 7.86328C864.755 8.00391 864.866 8.17383 864.866 8.37305C864.866 8.71289 864.773 8.93555 864.585 9.04102C864.398 9.14648 864.011 9.24023 863.425 9.32227C862.851 9.39258 862.464 9.62109 862.265 10.0078C862.077 10.3828 861.984 10.8105 861.984 11.291V25.6172C861.984 27.3867 861.784 28.7285 861.386 29.6426C860.999 30.5449 860.361 31.3359 859.47 32.0156C858.579 32.6953 857.548 33.1934 856.376 33.5098C855.204 33.8379 853.927 34.002 852.544 34.002C850.06 34.002 847.997 33.3926 846.357 32.1738C844.728 30.9551 843.913 29.2852 843.913 27.1641V10.6758C843.913 10.3359 843.82 10.0547 843.632 9.83203C843.456 9.59766 843.07 9.44531 842.472 9.375C841.874 9.30469 841.505 9.20508 841.364 9.07617C841.236 8.93555 841.171 8.75977 841.171 8.54883C841.171 8.31445 841.277 8.12695 841.487 7.98633C841.698 7.83398 841.939 7.75781 842.208 7.75781C842.548 7.75781 843.034 7.81641 843.667 7.93359C844.3 8.03906 844.775 8.0918 845.091 8.0918C845.466 8.0918 846.011 8.0332 846.726 7.91602C847.452 7.78711 848.003 7.72266 848.378 7.72266C848.777 7.72266 849.105 7.79297 849.362 7.93359C849.62 8.07422 849.749 8.2793 849.749 8.54883C849.749 8.77148 849.685 8.95898 849.556 9.11133C849.439 9.25195 849.122 9.3457 848.607 9.39258C848.091 9.42773 847.693 9.54492 847.411 9.74414C847.142 9.94336 847.007 10.377 847.007 11.0449V27.0586C847.007 28.6406 847.564 29.8945 848.677 30.8203C849.79 31.7461 851.214 32.209 852.948 32.209C854.038 32.209 855.111 32.0332 856.165 31.6816C857.22 31.3184 858.122 30.7793 858.872 30.0645C859.634 29.3379 860.062 28.377 860.155 27.1816C860.226 26.877 860.261 26.1738 860.261 25.0723V10.9395ZM875.441 10.6758C875.441 9.73828 874.809 9.26953 873.543 9.26953C872.746 9.26953 872.348 9.00586 872.348 8.47852C872.348 7.97461 872.746 7.72266 873.543 7.72266C874 7.72266 874.51 7.77539 875.072 7.88086C875.635 7.97461 876.109 8.02148 876.496 8.02148C876.824 8.02148 877.393 7.95703 878.201 7.82812C879.01 7.6875 879.977 7.61719 881.102 7.61719C883.867 7.61719 885.988 8.25586 887.465 9.5332C888.953 10.7988 889.697 12.3105 889.697 14.0684C889.697 15.4512 889.352 16.5117 888.66 17.25C887.98 17.9883 887.031 18.6445 885.812 19.2188C884.605 19.793 883.023 20.0801 881.066 20.0801C879.93 20.0801 879.361 19.7402 879.361 19.0605C879.361 18.8848 879.438 18.7441 879.59 18.6387C879.754 18.5215 879.971 18.4629 880.24 18.4629C880.299 18.4629 880.492 18.4746 880.82 18.498C881.148 18.5215 881.447 18.5332 881.717 18.5332C882.982 18.5332 884.025 18.1406 884.846 17.3555C885.678 16.5703 886.094 15.4746 886.094 14.0684C886.094 12.7441 885.584 11.5781 884.564 10.5703C883.545 9.5625 882.174 9.05859 880.451 9.05859C879.83 9.05859 879.385 9.14648 879.115 9.32227C878.857 9.48633 878.693 9.73242 878.623 10.0605C878.564 10.377 878.535 10.8926 878.535 11.6074V30.293C878.535 31.207 879.127 31.6641 880.311 31.6641C880.885 31.6641 881.266 31.7402 881.453 31.8926C881.652 32.0449 881.752 32.2676 881.752 32.5605C881.752 33.041 881.271 33.2812 880.311 33.2812C880.006 33.2812 879.432 33.1699 878.588 32.9473C877.756 32.7129 877.223 32.5957 876.988 32.5957C876.637 32.5957 876.115 32.7129 875.424 32.9473C874.744 33.1699 874.27 33.2812 874 33.2812C872.992 33.2812 872.488 32.9824 872.488 32.3848C872.488 32.2207 872.541 32.0859 872.646 31.9805C872.764 31.8633 873.145 31.7812 873.789 31.7344C874.445 31.6758 874.885 31.459 875.107 31.084C875.33 30.6973 875.441 30.2461 875.441 29.7305V10.6758ZM921.693 15.6152C921.752 15.709 921.898 15.8672 922.132 16.0898C922.367 16.3008 922.484 16.5234 922.484 16.7578C922.484 17.0156 922.291 17.1445 921.904 17.1445C921.798 17.1445 921.588 17.1328 921.271 17.1094C920.955 17.0742 920.697 17.0566 920.498 17.0566C919.361 17.0566 918.06 17.6602 916.595 18.8672C915.142 20.0742 914.416 21.9434 914.416 24.4746C914.416 26.502 915.119 28.3125 916.525 29.9062C917.931 31.4883 919.578 32.2793 921.464 32.2793C923.351 32.2793 925.132 31.6406 926.808 30.3633C928.484 29.0742 929.322 27.5156 929.322 25.6875C929.322 24.3164 928.929 23.2324 928.144 22.4355C927.359 21.627 926.527 21.2227 925.648 21.2227C924.957 21.2227 924.371 21.4512 923.89 21.9082C923.41 22.3535 923.17 22.9453 923.17 23.6836C923.17 24.1758 923.41 24.6035 923.89 24.9668C924.148 25.1543 924.277 25.3125 924.277 25.4414C924.277 25.6055 924.189 25.7578 924.013 25.8984C923.838 26.0273 923.662 26.0918 923.486 26.0918C923.064 26.0918 922.677 25.8574 922.326 25.3887C921.974 24.9082 921.798 24.3105 921.798 23.5957C921.798 22.7402 922.004 21.9258 922.414 21.1523C922.824 20.3672 923.562 19.5703 924.629 18.7617C925.695 17.9414 926.902 17.3496 928.25 16.9863C929.597 16.623 931.367 16.4414 933.558 16.4414C935.55 16.4414 937.162 16.2305 938.392 15.8086C939.634 15.375 940.255 14.6953 940.255 13.7695C940.255 13.6641 940.197 13.5059 940.08 13.2949C939.963 13.0723 939.904 12.8965 939.904 12.7676C939.904 12.3574 940.156 12.1523 940.66 12.1523C940.953 12.1523 941.193 12.3223 941.38 12.6621C941.568 12.9902 941.662 13.3477 941.662 13.7344C941.662 14.4609 941.363 15.1992 940.765 15.9492C940.179 16.6875 939.359 17.3438 938.304 17.918C937.261 18.4805 936.089 18.8555 934.789 19.043C933.5 19.2305 931.713 19.3242 929.427 19.3242C928.127 19.3242 927.306 19.3945 926.966 19.5352C926.638 19.6641 926.474 19.7695 926.474 19.8516C926.474 19.9336 926.58 19.9746 926.791 19.9746C927.834 19.9746 928.812 20.5254 929.726 21.627C930.652 22.7285 931.115 24.1055 931.115 25.7578C931.115 27.1992 930.646 28.5176 929.709 29.7129C928.771 30.8965 927.505 31.8398 925.912 32.543C924.318 33.2344 922.754 33.5801 921.218 33.5801C918.172 33.5801 915.658 32.666 913.677 30.8379C911.697 29.0098 910.707 26.7422 910.707 24.0352C910.707 21.9258 911.55 20.0449 913.238 18.3926C914.937 16.7285 916.9 15.8027 919.127 15.6152C919.338 15.5918 919.443 15.5449 919.443 15.4746C919.443 15.4043 919.361 15.2578 919.197 15.0352L914.486 8.4082C914.38 8.26758 914.328 8.15039 914.328 8.05664C914.328 7.82227 914.55 7.68164 914.996 7.63477C915.453 7.57617 916.244 7.54688 917.369 7.54688H925.507C925.964 7.54688 926.304 7.58203 926.527 7.65234C926.75 7.72266 926.92 7.91016 927.037 8.21484C927.166 8.50781 927.23 8.98242 927.23 9.63867C927.23 10.7285 927.148 11.3906 926.984 11.625C926.82 11.8594 926.58 11.9766 926.263 11.9766C925.935 11.9766 925.654 11.7246 925.42 11.2207C925.209 10.7637 924.974 10.5352 924.716 10.5352H919.847C919.156 10.5352 918.81 10.7461 918.81 11.168C918.81 11.3789 918.892 11.6016 919.056 11.8359L921.693 15.6152ZM965.554 10.6758C965.554 9.73828 964.921 9.26953 963.655 9.26953C962.859 9.26953 962.46 9.00586 962.46 8.47852C962.46 7.97461 962.859 7.72266 963.655 7.72266C964.112 7.72266 964.622 7.77539 965.185 7.88086C965.747 7.97461 966.222 8.02148 966.609 8.02148C966.937 8.02148 967.505 7.95703 968.314 7.82812C969.122 7.6875 970.089 7.61719 971.214 7.61719C973.98 7.61719 976.101 8.25586 977.577 9.5332C979.066 10.7988 979.81 12.3105 979.81 14.0684C979.81 15.4512 979.464 16.5117 978.773 17.25C978.093 17.9883 977.144 18.6445 975.925 19.2188C974.718 19.793 973.136 20.0801 971.179 20.0801C970.042 20.0801 969.474 19.7402 969.474 19.0605C969.474 18.8848 969.55 18.7441 969.702 18.6387C969.866 18.5215 970.083 18.4629 970.353 18.4629C970.411 18.4629 970.605 18.4746 970.933 18.498C971.261 18.5215 971.56 18.5332 971.829 18.5332C973.095 18.5332 974.138 18.1406 974.958 17.3555C975.79 16.5703 976.206 15.4746 976.206 14.0684C976.206 12.7441 975.696 11.5781 974.677 10.5703C973.657 9.5625 972.286 9.05859 970.564 9.05859C969.943 9.05859 969.497 9.14648 969.228 9.32227C968.97 9.48633 968.806 9.73242 968.736 10.0605C968.677 10.377 968.648 10.8926 968.648 11.6074V30.293C968.648 31.207 969.239 31.6641 970.423 31.6641C970.997 31.6641 971.378 31.7402 971.566 31.8926C971.765 32.0449 971.864 32.2676 971.864 32.5605C971.864 33.041 971.384 33.2812 970.423 33.2812C970.118 33.2812 969.544 33.1699 968.7 32.9473C967.868 32.7129 967.335 32.5957 967.101 32.5957C966.749 32.5957 966.228 32.7129 965.536 32.9473C964.857 33.1699 964.382 33.2812 964.112 33.2812C963.105 33.2812 962.601 32.9824 962.601 32.3848C962.601 32.2207 962.654 32.0859 962.759 31.9805C962.876 31.8633 963.257 31.7812 963.902 31.7344C964.558 31.6758 964.997 31.459 965.22 31.084C965.443 30.6973 965.554 30.2461 965.554 29.7305V10.6758ZM1008.4 29.9414C1008.4 30.3398 1008.5 30.6973 1008.7 31.0137C1008.9 31.3301 1009.3 31.5703 1009.9 31.7344C1010.49 31.8984 1010.85 32.0449 1010.97 32.1738C1011.09 32.3027 1011.14 32.4609 1011.14 32.6484C1011.14 32.8125 1011.02 32.9707 1010.78 33.123C1010.53 33.2754 1010.22 33.3516 1009.84 33.3516C1009.55 33.3516 1009.06 33.2988 1008.38 33.1934C1007.72 33.0879 1007.27 33.0352 1007.03 33.0352C1006.68 33.0352 1006.19 33.082 1005.57 33.1758C1004.96 33.2695 1004.53 33.3164 1004.27 33.3164C1003.43 33.3164 1003.01 33.0645 1003.01 32.5605C1003.01 32.2676 1003.08 32.0742 1003.22 31.9805C1003.37 31.8867 1003.64 31.8105 1004.04 31.752C1004.44 31.6816 1004.77 31.5293 1005.03 31.2949C1005.29 31.0488 1005.41 30.5273 1005.41 29.7305V19.1836C1005.41 18.8086 1005.3 18.5156 1005.06 18.3047C1004.84 18.0938 1004.32 17.9883 1003.52 17.9883H995.816C995.16 17.9883 994.738 17.918 994.551 17.7773C994.375 17.6367 994.287 17.4258 994.287 17.1445C994.287 16.8633 994.404 16.6582 994.639 16.5293C994.885 16.4004 995.324 16.3359 995.957 16.3359H1004.27C1004.73 16.3359 1005.02 16.2656 1005.15 16.125C1005.28 15.9727 1005.34 15.6914 1005.34 15.2812C1005.34 12.6914 1005.31 11.127 1005.24 10.5879C1005.18 10.0371 1004.69 9.63867 1003.78 9.39258C1003.3 9.25195 1003 9.10547 1002.88 8.95312C1002.78 8.80078 1002.72 8.61914 1002.72 8.4082C1002.72 8.26758 1002.81 8.13281 1002.99 8.00391C1003.16 7.86328 1003.38 7.79297 1003.62 7.79297C1004.08 7.79297 1004.63 7.8457 1005.29 7.95117C1005.95 8.04492 1006.47 8.0918 1006.86 8.0918C1007.25 8.0918 1007.74 8.05078 1008.31 7.96875C1008.9 7.875 1009.46 7.82812 1009.98 7.82812C1010.55 7.82812 1010.83 8.05664 1010.83 8.51367C1010.83 8.80664 1010.76 9 1010.62 9.09375C1010.48 9.1875 1010.21 9.26953 1009.81 9.33984C1009.41 9.41016 1009.08 9.58008 1008.81 9.84961C1008.54 10.1074 1008.4 10.6582 1008.4 11.502V29.9414ZM993.391 29.9414C993.391 30.3047 993.484 30.6328 993.672 30.9258C993.871 31.2188 994.27 31.4648 994.867 31.6641C995.465 31.8516 995.822 32.0156 995.939 32.1562C996.068 32.2969 996.133 32.4609 996.133 32.6484C996.133 32.8125 996.01 32.9707 995.764 33.123C995.518 33.2754 995.207 33.3516 994.832 33.3516C994.539 33.3516 994.053 33.2988 993.373 33.1934C992.705 33.0879 992.254 33.0352 992.02 33.0352C991.668 33.0352 991.182 33.082 990.561 33.1758C989.951 33.2695 989.518 33.3164 989.26 33.3164C988.416 33.3164 987.994 33.0645 987.994 32.5605C987.994 32.2676 988.064 32.0742 988.205 31.9805C988.346 31.8867 988.609 31.8105 988.996 31.752C989.383 31.6816 989.699 31.5293 989.945 31.2949C990.203 31.0488 990.332 30.5273 990.332 29.7305V11.2207C990.332 10.8223 990.244 10.4648 990.068 10.1484C989.893 9.82031 989.512 9.58008 988.926 9.42773C988.352 9.26367 988.006 9.10547 987.889 8.95312C987.771 8.80078 987.713 8.61914 987.713 8.4082C987.713 8.26758 987.801 8.13281 987.977 8.00391C988.152 7.86328 988.363 7.79297 988.609 7.79297C989.066 7.79297 989.623 7.8457 990.279 7.95117C990.936 8.04492 991.457 8.0918 991.844 8.0918C992.242 8.0918 992.729 8.05078 993.303 7.96875C993.889 7.875 994.445 7.82812 994.973 7.82812C995.535 7.82812 995.816 8.05664 995.816 8.51367C995.816 8.80664 995.74 9.00586 995.588 9.11133C995.447 9.20508 995.178 9.29883 994.779 9.39258C994.381 9.47461 994.047 9.65039 993.777 9.91992C993.52 10.1777 993.391 10.7051 993.391 11.502V29.9414ZM1032.65 7.10742C1036.75 7.10742 1039.98 8.51367 1042.32 11.3262C1044.66 14.1387 1045.84 17.2969 1045.84 20.8008C1045.84 23.3906 1045.2 25.7578 1043.92 27.9023C1042.66 30.0469 1041 31.5586 1038.95 32.4375C1036.91 33.3164 1034.74 33.7559 1032.44 33.7559C1028.7 33.7559 1025.59 32.4551 1023.11 29.8535C1020.62 27.252 1019.38 23.9473 1019.38 19.9395C1019.38 17.8418 1019.93 15.7676 1021.03 13.7168C1022.14 11.666 1023.69 10.0547 1025.69 8.88281C1027.71 7.69922 1030.03 7.10742 1032.65 7.10742ZM1032.55 32.0684C1034.75 32.0684 1036.58 31.582 1038.05 30.6094C1039.53 29.6367 1040.58 28.4414 1041.21 27.0234C1041.85 25.5938 1042.16 23.6953 1042.16 21.3281C1042.16 17.2383 1041.31 14.1152 1039.6 11.959C1037.89 9.79102 1035.57 8.70703 1032.65 8.70703C1029.64 8.70703 1027.29 9.82031 1025.59 12.0469C1023.89 14.2617 1023.04 16.8926 1023.04 19.9395C1023.04 28.0254 1026.21 32.0684 1032.55 32.0684ZM1068.44 7.61719C1068.83 7.61719 1069.16 8.0332 1069.4 8.86523C1069.65 9.69727 1069.77 10.4707 1069.77 11.1855C1069.77 11.9004 1069.54 12.2578 1069.09 12.2578C1068.92 12.2578 1068.77 12.2051 1068.63 12.0996C1068.5 11.9941 1068.31 11.625 1068.07 10.9922C1067.83 10.3477 1067.47 9.91406 1066.99 9.69141C1066.53 9.45703 1066.01 9.33984 1065.45 9.33984C1064.65 9.33984 1064.07 9.52734 1063.71 9.90234C1063.36 10.2656 1063.18 10.8633 1063.18 11.6953V30.3633C1063.18 30.6445 1063.26 30.8965 1063.43 31.1191C1063.6 31.3301 1063.96 31.5176 1064.5 31.6816C1065.04 31.834 1065.36 31.9688 1065.48 32.0859C1065.6 32.2031 1065.66 32.3379 1065.66 32.4902C1065.66 33.0996 1065.34 33.4043 1064.69 33.4043C1064.34 33.4043 1063.82 33.3457 1063.14 33.2285C1062.46 33.123 1061.96 33.0703 1061.63 33.0703C1061.33 33.0703 1060.88 33.1172 1060.3 33.2109C1059.71 33.3047 1059.27 33.3516 1058.96 33.3516C1058.6 33.3516 1058.29 33.2695 1058.03 33.1055C1057.77 32.9414 1057.64 32.7129 1057.64 32.4199C1057.64 32.2793 1057.69 32.1562 1057.78 32.0508C1057.88 31.9336 1058.19 31.7988 1058.71 31.6465C1059.24 31.4824 1059.59 31.2363 1059.77 30.9082C1059.96 30.5801 1060.05 30.2109 1060.05 29.8008V10.9746C1060.05 9.83789 1059.28 9.26953 1057.75 9.26953C1056.75 9.26953 1056.04 9.49219 1055.62 9.9375C1055.36 10.1953 1055.18 10.5937 1055.06 11.1328C1054.94 11.6602 1054.82 11.9766 1054.69 12.082C1054.57 12.1758 1054.43 12.2227 1054.25 12.2227C1054.06 12.2227 1053.88 12.1758 1053.7 12.082C1053.54 11.9766 1053.46 11.8477 1053.46 11.6953C1053.46 10.418 1053.57 9.42188 1053.79 8.70703C1054.02 7.98047 1054.34 7.61719 1054.76 7.61719H1068.44ZM1090.68 7.10742C1094.78 7.10742 1098.01 8.51367 1100.35 11.3262C1102.69 14.1387 1103.87 17.2969 1103.87 20.8008C1103.87 23.3906 1103.23 25.7578 1101.95 27.9023C1100.68 30.0469 1099.03 31.5586 1096.97 32.4375C1094.94 33.3164 1092.77 33.7559 1090.47 33.7559C1086.73 33.7559 1083.62 32.4551 1081.14 29.8535C1078.65 27.252 1077.41 23.9473 1077.41 19.9395C1077.41 17.8418 1077.96 15.7676 1079.06 13.7168C1080.16 11.666 1081.72 10.0547 1083.72 8.88281C1085.74 7.69922 1088.06 7.10742 1090.68 7.10742ZM1090.58 32.0684C1092.78 32.0684 1094.61 31.582 1096.08 30.6094C1097.56 29.6367 1098.61 28.4414 1099.24 27.0234C1099.88 25.5938 1100.19 23.6953 1100.19 21.3281C1100.19 17.2383 1099.34 14.1152 1097.63 11.959C1095.91 9.79102 1093.6 8.70703 1090.68 8.70703C1087.67 8.70703 1085.31 9.82031 1083.62 12.0469C1081.92 14.2617 1081.07 16.8926 1081.07 19.9395C1081.07 28.0254 1084.24 32.0684 1090.58 32.0684ZM1134.3 23.4551C1134.71 23.4551 1135 23.4961 1135.15 23.5781C1135.31 23.6484 1135.39 23.8125 1135.39 24.0703C1135.39 24.3281 1135.25 24.6035 1134.95 24.8965C1134.67 25.1777 1134.53 25.5762 1134.53 26.0918V27.5332C1134.53 27.9199 1134.64 28.2246 1134.87 28.4473C1135.1 28.6699 1135.22 28.8691 1135.22 29.0449C1135.22 29.5254 1134.7 30.1348 1133.67 30.873C1132.65 31.6113 1131.36 32.2441 1129.8 32.7715C1128.25 33.2871 1126.75 33.5449 1125.3 33.5449C1121.65 33.5449 1118.5 32.3379 1115.86 29.9238C1113.24 27.498 1111.93 24.2754 1111.93 20.2559C1111.93 17.9121 1112.46 15.7324 1113.53 13.7168C1114.6 11.7012 1116.1 10.1309 1118.01 9.00586C1119.92 7.86914 1122.06 7.30078 1124.44 7.30078C1126.75 7.30078 1128.89 7.72266 1130.86 8.56641C1132.83 9.39844 1133.81 10.3301 1133.81 11.3613V12.7676C1133.81 12.9082 1133.84 13.125 1133.9 13.418C1133.96 13.6992 1133.99 13.9629 1133.99 14.209C1133.99 14.4434 1133.93 14.6484 1133.81 14.8242C1133.71 14.9883 1133.56 15.0703 1133.37 15.0703C1133.17 15.0703 1132.99 14.9941 1132.81 14.8418C1132.63 14.6777 1132.38 14.2383 1132.04 13.5234C1131.39 12.1875 1130.72 11.2207 1130.01 10.623C1128.78 9.58008 1127.07 9.05859 1124.88 9.05859C1122.1 9.05859 1119.88 10.0723 1118.2 12.0996C1116.54 14.127 1115.71 16.7871 1115.71 20.0801C1115.71 23.8301 1116.61 26.7246 1118.41 28.7637C1120.22 30.791 1122.54 31.8047 1125.39 31.8047C1126.87 31.8047 1128.24 31.5117 1129.51 30.9258C1130.77 30.3281 1131.4 29.4609 1131.4 28.3242V25.9512C1131.4 25.377 1130.86 25.0898 1129.79 25.0898C1129.6 25.0898 1129.31 25.1016 1128.91 25.125C1128.52 25.1484 1128.25 25.1602 1128.08 25.1602C1127.64 25.1602 1127.29 25.0723 1127.04 24.8965C1126.8 24.7207 1126.67 24.4922 1126.67 24.2109C1126.67 23.707 1127.01 23.4551 1127.69 23.4551H1134.3ZM1146.32 10.6758C1146.32 9.78516 1145.71 9.30469 1144.49 9.23438C1143.65 9.1875 1143.23 8.91211 1143.23 8.4082C1143.23 7.88086 1143.71 7.61719 1144.67 7.61719C1145.12 7.61719 1145.63 7.6582 1146.18 7.74023C1146.73 7.82227 1147.2 7.86328 1147.59 7.86328C1147.84 7.86328 1148.56 7.78125 1149.73 7.61719C1150.9 7.45313 1151.8 7.37109 1152.44 7.37109C1154.85 7.37109 1156.81 7.99219 1158.31 9.23438C1159.82 10.4766 1160.58 12.0879 1160.58 14.0684C1160.58 15.334 1160.2 16.3828 1159.45 17.2148C1158.71 18.0352 1157.44 18.7969 1155.62 19.5C1155.28 19.6289 1155.11 19.7637 1155.11 19.9043C1155.11 19.998 1155.18 20.1504 1155.32 20.3613C1155.96 21.2754 1157.18 23.2559 1158.96 26.3027C1160.74 29.3379 1161.69 30.9258 1161.81 31.0664C1161.92 31.1953 1162.23 31.3477 1162.74 31.5234C1163.24 31.6875 1163.56 31.8574 1163.69 32.0332C1163.83 32.1973 1163.9 32.3848 1163.9 32.5957C1163.9 32.8652 1163.72 33.0938 1163.37 33.2812C1163.02 33.4805 1162.74 33.5801 1162.53 33.5801C1161.99 33.5801 1161.33 33.375 1160.56 32.9648C1159.79 32.543 1159.28 32.1855 1159.03 31.8926C1158.57 31.3066 1157.08 28.916 1154.55 24.7207C1153.36 22.7637 1152.68 21.6621 1152.51 21.416C1151.88 20.502 1151.25 19.916 1150.64 19.6582C1150.49 19.5996 1150.39 19.541 1150.35 19.4824C1150.3 19.4121 1150.28 19.2715 1150.28 19.0605C1150.28 18.5566 1150.58 18.3047 1151.19 18.3047C1151.25 18.3047 1151.41 18.3281 1151.68 18.375C1151.95 18.4102 1152.21 18.4277 1152.47 18.4277C1153.76 18.4277 1154.84 18.0117 1155.71 17.1797C1156.57 16.3477 1157.01 15.1875 1157.01 13.6992C1157.01 12.6445 1156.52 11.5957 1155.55 10.5527C1154.58 9.50977 1153.23 8.98828 1151.51 8.98828C1150.86 8.98828 1150.39 9.06445 1150.08 9.2168C1149.79 9.35742 1149.6 9.53906 1149.52 9.76172C1149.45 9.97266 1149.41 10.2539 1149.41 10.6055V30.293C1149.41 30.6797 1149.58 30.9961 1149.91 31.2422C1150.25 31.4766 1150.69 31.5938 1151.22 31.5938C1151.81 31.5938 1152.2 31.6699 1152.4 31.8223C1152.6 31.9746 1152.7 32.1973 1152.7 32.4902C1152.7 32.7715 1152.57 33.0059 1152.31 33.1934C1152.07 33.3809 1151.69 33.4746 1151.19 33.4746C1150.73 33.4746 1150.17 33.3398 1149.5 33.0703C1148.85 32.8125 1148.32 32.6836 1147.94 32.6836C1147.61 32.6836 1147.12 32.8066 1146.46 33.0527C1145.8 33.3105 1145.29 33.4395 1144.91 33.4395C1143.84 33.4395 1143.3 33.0996 1143.3 32.4199C1143.3 32.1621 1143.38 31.9746 1143.56 31.8574C1143.74 31.7285 1144.18 31.6641 1144.88 31.6641C1145.3 31.6641 1145.65 31.5703 1145.92 31.3828C1146.19 31.1953 1146.32 30.9668 1146.32 30.6973V10.6758ZM1183.88 13.998C1183.64 13.459 1183.47 13.1895 1183.35 13.1895C1183.21 13.1895 1183 13.5645 1182.72 14.3145L1178.96 22.9102L1175.7 30.1523C1175.61 30.375 1175.56 30.5684 1175.56 30.7324C1175.56 30.9082 1175.63 31.0664 1175.76 31.207C1175.9 31.3477 1176.22 31.4883 1176.72 31.6289C1177.23 31.7695 1177.54 31.9102 1177.67 32.0508C1177.8 32.1914 1177.87 32.3496 1177.87 32.5254C1177.87 33.0645 1177.51 33.334 1176.81 33.334C1176.65 33.334 1176.24 33.2812 1175.6 33.1758C1174.97 33.082 1174.44 33.0352 1174.02 33.0352C1173.58 33.0352 1173.14 33.082 1172.68 33.1758C1172.22 33.2695 1171.89 33.3164 1171.68 33.3164C1171.39 33.3164 1171.15 33.2344 1170.96 33.0703C1170.77 32.918 1170.68 32.7363 1170.68 32.5254C1170.68 32.2207 1170.74 32.0215 1170.85 31.9277C1170.97 31.834 1171.19 31.7637 1171.5 31.7168C1172.42 31.5645 1173.04 31.2246 1173.38 30.6973C1173.74 30.1582 1174.63 28.2656 1176.06 25.0195L1180.31 15.5273C1181.35 13.2539 1182.02 11.748 1182.31 11.0098C1182.62 10.2598 1182.77 9.67969 1182.77 9.26953C1182.77 9.12891 1182.72 8.87695 1182.61 8.51367C1182.52 8.13867 1182.47 7.86914 1182.47 7.70508C1182.47 7.36523 1182.65 7.19531 1183.02 7.19531C1183.61 7.19531 1184.09 7.44727 1184.46 7.95117C1184.82 8.45508 1185.31 9.4043 1185.92 10.7988L1190.79 21.8027C1192.56 25.8105 1193.67 28.2891 1194.14 29.2383C1194.61 30.1875 1194.99 30.8027 1195.29 31.084C1195.59 31.3535 1195.95 31.5527 1196.36 31.6816C1196.78 31.8105 1197.07 31.9395 1197.22 32.0684C1197.37 32.1855 1197.45 32.3906 1197.45 32.6836C1197.45 33.082 1197.08 33.2812 1196.34 33.2812C1196.09 33.2812 1195.64 33.2461 1194.99 33.1758C1194.34 33.1055 1193.7 33.0703 1193.05 33.0703C1192.41 33.0703 1191.74 33.1113 1191.03 33.1934C1190.34 33.2754 1189.87 33.3164 1189.61 33.3164C1189.21 33.3164 1188.89 33.2461 1188.66 33.1055C1188.42 32.9766 1188.31 32.7949 1188.31 32.5605C1188.31 32.3613 1188.38 32.1973 1188.52 32.0684C1188.66 31.9395 1189.03 31.8457 1189.64 31.7871C1190.26 31.7285 1190.66 31.5996 1190.84 31.4004C1191.03 31.1895 1191.12 30.9316 1191.12 30.627C1191.12 30.2988 1190.79 29.3965 1190.12 27.9199C1189.45 26.4316 1189.03 25.6406 1188.87 25.5469C1188.71 25.4531 1188.39 25.4062 1187.92 25.4062H1180.06C1179.76 25.4062 1179.48 25.3125 1179.24 25.125C1178.99 24.9258 1178.87 24.6973 1178.87 24.4395C1178.87 24.2402 1178.96 24.0645 1179.15 23.9121C1179.35 23.7598 1179.57 23.6836 1179.82 23.6836H1187.38C1187.8 23.6836 1188.01 23.6074 1188.01 23.4551C1188.01 23.3613 1187.93 23.1328 1187.76 22.7695L1183.88 13.998ZM1207.44 10.6758C1207.44 9.73828 1206.81 9.26953 1205.54 9.26953C1204.75 9.26953 1204.35 9.00586 1204.35 8.47852C1204.35 7.97461 1204.75 7.72266 1205.54 7.72266C1206 7.72266 1206.51 7.77539 1207.07 7.88086C1207.64 7.97461 1208.11 8.02148 1208.5 8.02148C1208.83 8.02148 1209.39 7.95703 1210.2 7.82812C1211.01 7.6875 1211.98 7.61719 1213.1 7.61719C1215.87 7.61719 1217.99 8.25586 1219.47 9.5332C1220.95 10.7988 1221.7 12.3105 1221.7 14.0684C1221.7 15.4512 1221.35 16.5117 1220.66 17.25C1219.98 17.9883 1219.03 18.6445 1217.81 19.2188C1216.61 19.793 1215.03 20.0801 1213.07 20.0801C1211.93 20.0801 1211.36 19.7402 1211.36 19.0605C1211.36 18.8848 1211.44 18.7441 1211.59 18.6387C1211.76 18.5215 1211.97 18.4629 1212.24 18.4629C1212.3 18.4629 1212.49 18.4746 1212.82 18.498C1213.15 18.5215 1213.45 18.5332 1213.72 18.5332C1214.98 18.5332 1216.03 18.1406 1216.85 17.3555C1217.68 16.5703 1218.1 15.4746 1218.1 14.0684C1218.1 12.7441 1217.59 11.5781 1216.57 10.5703C1215.55 9.5625 1214.18 9.05859 1212.45 9.05859C1211.83 9.05859 1211.39 9.14648 1211.12 9.32227C1210.86 9.48633 1210.69 9.73242 1210.62 10.0605C1210.57 10.377 1210.54 10.8926 1210.54 11.6074V30.293C1210.54 31.207 1211.13 31.6641 1212.31 31.6641C1212.89 31.6641 1213.27 31.7402 1213.45 31.8926C1213.65 32.0449 1213.75 32.2676 1213.75 32.5605C1213.75 33.041 1213.27 33.2812 1212.31 33.2812C1212.01 33.2812 1211.43 33.1699 1210.59 32.9473C1209.76 32.7129 1209.22 32.5957 1208.99 32.5957C1208.64 32.5957 1208.12 32.7129 1207.43 32.9473C1206.75 33.1699 1206.27 33.2812 1206 33.2812C1204.99 33.2812 1204.49 32.9824 1204.49 32.3848C1204.49 32.2207 1204.54 32.0859 1204.65 31.9805C1204.77 31.8633 1205.15 31.7812 1205.79 31.7344C1206.45 31.6758 1206.89 31.459 1207.11 31.084C1207.33 30.6973 1207.44 30.2461 1207.44 29.7305V10.6758ZM1250.29 29.9414C1250.29 30.3398 1250.39 30.6973 1250.59 31.0137C1250.79 31.3301 1251.19 31.5703 1251.79 31.7344C1252.38 31.8984 1252.74 32.0449 1252.86 32.1738C1252.97 32.3027 1253.03 32.4609 1253.03 32.6484C1253.03 32.8125 1252.91 32.9707 1252.66 33.123C1252.42 33.2754 1252.11 33.3516 1251.73 33.3516C1251.44 33.3516 1250.95 33.2988 1250.27 33.1934C1249.61 33.0879 1249.15 33.0352 1248.92 33.0352C1248.57 33.0352 1248.08 33.082 1247.46 33.1758C1246.85 33.2695 1246.42 33.3164 1246.16 33.3164C1245.32 33.3164 1244.89 33.0645 1244.89 32.5605C1244.89 32.2676 1244.97 32.0742 1245.11 31.9805C1245.26 31.8867 1245.53 31.8105 1245.93 31.752C1246.33 31.6816 1246.66 31.5293 1246.92 31.2949C1247.17 31.0488 1247.3 30.5273 1247.3 29.7305V19.1836C1247.3 18.8086 1247.19 18.5156 1246.95 18.3047C1246.73 18.0938 1246.21 17.9883 1245.4 17.9883H1237.71C1237.05 17.9883 1236.63 17.918 1236.44 17.7773C1236.26 17.6367 1236.18 17.4258 1236.18 17.1445C1236.18 16.8633 1236.29 16.6582 1236.53 16.5293C1236.77 16.4004 1237.21 16.3359 1237.85 16.3359H1246.16C1246.62 16.3359 1246.91 16.2656 1247.04 16.125C1247.17 15.9727 1247.23 15.6914 1247.23 15.2812C1247.23 12.6914 1247.2 11.127 1247.13 10.5879C1247.07 10.0371 1246.58 9.63867 1245.67 9.39258C1245.19 9.25195 1244.89 9.10547 1244.77 8.95312C1244.67 8.80078 1244.61 8.61914 1244.61 8.4082C1244.61 8.26758 1244.7 8.13281 1244.88 8.00391C1245.05 7.86328 1245.26 7.79297 1245.51 7.79297C1245.97 7.79297 1246.52 7.8457 1247.18 7.95117C1247.84 8.04492 1248.36 8.0918 1248.74 8.0918C1249.14 8.0918 1249.63 8.05078 1250.2 7.96875C1250.79 7.875 1251.35 7.82812 1251.87 7.82812C1252.44 7.82812 1252.72 8.05664 1252.72 8.51367C1252.72 8.80664 1252.65 9 1252.51 9.09375C1252.37 9.1875 1252.1 9.26953 1251.7 9.33984C1251.3 9.41016 1250.97 9.58008 1250.7 9.84961C1250.43 10.1074 1250.29 10.6582 1250.29 11.502V29.9414ZM1235.28 29.9414C1235.28 30.3047 1235.37 30.6328 1235.56 30.9258C1235.76 31.2188 1236.16 31.4648 1236.76 31.6641C1237.35 31.8516 1237.71 32.0156 1237.83 32.1562C1237.96 32.2969 1238.02 32.4609 1238.02 32.6484C1238.02 32.8125 1237.9 32.9707 1237.65 33.123C1237.41 33.2754 1237.1 33.3516 1236.72 33.3516C1236.43 33.3516 1235.94 33.2988 1235.26 33.1934C1234.59 33.0879 1234.14 33.0352 1233.91 33.0352C1233.56 33.0352 1233.07 33.082 1232.45 33.1758C1231.84 33.2695 1231.41 33.3164 1231.15 33.3164C1230.31 33.3164 1229.88 33.0645 1229.88 32.5605C1229.88 32.2676 1229.95 32.0742 1230.09 31.9805C1230.23 31.8867 1230.5 31.8105 1230.89 31.752C1231.27 31.6816 1231.59 31.5293 1231.83 31.2949C1232.09 31.0488 1232.22 30.5273 1232.22 29.7305V11.2207C1232.22 10.8223 1232.13 10.4648 1231.96 10.1484C1231.78 9.82031 1231.4 9.58008 1230.81 9.42773C1230.24 9.26367 1229.89 9.10547 1229.78 8.95312C1229.66 8.80078 1229.6 8.61914 1229.6 8.4082C1229.6 8.26758 1229.69 8.13281 1229.87 8.00391C1230.04 7.86328 1230.25 7.79297 1230.5 7.79297C1230.96 7.79297 1231.51 7.8457 1232.17 7.95117C1232.82 8.04492 1233.35 8.0918 1233.73 8.0918C1234.13 8.0918 1234.62 8.05078 1235.19 7.96875C1235.78 7.875 1236.33 7.82812 1236.86 7.82812C1237.42 7.82812 1237.71 8.05664 1237.71 8.51367C1237.71 8.80664 1237.63 9.00586 1237.48 9.11133C1237.34 9.20508 1237.07 9.29883 1236.67 9.39258C1236.27 9.47461 1235.94 9.65039 1235.67 9.91992C1235.41 10.1777 1235.28 10.7051 1235.28 11.502V29.9414ZM1273.72 18.9551C1273.82 18.9082 1273.93 18.791 1274.05 18.6035L1274.49 17.8828C1277.5 13.0781 1279.01 10.4004 1279.01 9.84961C1279.01 9.68555 1278.95 9.55664 1278.83 9.46289C1278.71 9.36914 1278.4 9.31055 1277.88 9.28711C1277.38 9.26367 1277.05 9.18164 1276.9 9.04102C1276.75 8.90039 1276.67 8.71289 1276.67 8.47852C1276.67 8.2207 1276.82 8.02148 1277.11 7.88086C1277.4 7.72852 1277.72 7.65234 1278.08 7.65234C1278.38 7.65234 1278.84 7.71094 1279.46 7.82812C1280.09 7.93359 1280.56 7.98633 1280.89 7.98633C1281.18 7.98633 1281.6 7.93945 1282.15 7.8457C1282.72 7.74023 1283.13 7.6875 1283.4 7.6875C1283.69 7.6875 1283.96 7.75781 1284.21 7.89844C1284.47 8.03906 1284.6 8.2207 1284.6 8.44336C1284.6 9.01758 1284.16 9.30469 1283.3 9.30469C1282.7 9.30469 1282.17 9.45117 1281.7 9.74414C1281.23 10.0371 1280.73 10.6348 1280.2 11.5371L1279.29 13.0488C1276.01 18.4395 1274.37 21.3574 1274.37 21.8027V29.3262C1274.37 30.4863 1274.44 31.1953 1274.59 31.4531C1274.76 31.7109 1275.08 31.8984 1275.56 32.0156C1276.05 32.1328 1276.35 32.25 1276.44 32.3672C1276.55 32.4844 1276.6 32.625 1276.6 32.7891C1276.6 33.0234 1276.51 33.2168 1276.32 33.3691C1276.13 33.5332 1275.91 33.6152 1275.67 33.6152C1275.36 33.6152 1274.92 33.5566 1274.35 33.4395C1273.79 33.334 1273.35 33.2812 1273.03 33.2812C1272.74 33.2812 1272.32 33.334 1271.76 33.4395C1271.23 33.5566 1270.82 33.6152 1270.55 33.6152C1270.18 33.6152 1269.85 33.5449 1269.57 33.4043C1269.29 33.2637 1269.15 33.0703 1269.15 32.8242C1269.15 32.625 1269.2 32.4551 1269.3 32.3145C1269.41 32.1621 1269.67 32.0508 1270.09 31.9805C1270.52 31.8984 1270.8 31.7754 1270.96 31.6113C1271.12 31.4473 1271.21 31.2773 1271.24 31.1016C1271.26 30.9258 1271.27 30.4922 1271.27 29.8008V21.3633C1271.27 21.1172 1271.2 20.8945 1271.06 20.6953L1264.68 11.6074C1264.12 10.8223 1263.64 10.2656 1263.26 9.9375C1262.87 9.59766 1262.35 9.42773 1261.69 9.42773C1260.88 9.42773 1260.48 9.13477 1260.48 8.54883C1260.48 7.99805 1260.87 7.72266 1261.66 7.72266C1262.06 7.72266 1262.64 7.78125 1263.42 7.89844C1264.2 8.00391 1264.79 8.05664 1265.19 8.05664C1265.52 8.05664 1266.02 8.00391 1266.68 7.89844C1267.36 7.78125 1267.87 7.72266 1268.21 7.72266C1269.36 7.72266 1269.94 7.99805 1269.94 8.54883C1269.94 8.77148 1269.86 8.95312 1269.71 9.09375C1269.57 9.22266 1269.24 9.31641 1268.72 9.375C1268.22 9.43359 1267.9 9.51562 1267.77 9.62109C1267.66 9.71484 1267.6 9.83789 1267.6 9.99023C1267.6 10.3887 1268.54 11.8477 1270.43 14.3672C1270.69 14.7188 1271.28 15.5742 1272.22 16.9336C1273.16 18.2812 1273.66 18.9551 1273.72 18.9551Z" fill="white"/>
<path d="M0 20H342" stroke="white"/>
<path d="M1295 20H1637" stroke="white"/>
</svg>
